<svg width="309" height="302" viewBox="0 0 309 302" fill="none" xmlns="http://www.w3.org/2000/svg">
<path d="M249.7 70.3966C249.67 69.5138 248.341 68.8035 246.712 68.8035H147.91C146.259 68.8035 144.506 69.5357 144.506 70.4305V195.412C144.506 196.08 145.204 196.721 146.076 197.192C146.949 197.664 148.235 197.928 149.468 197.926L249.352 197.778C250.594 197.776 251.81 197.504 252.679 197.023C253.549 196.541 254.038 195.889 254.015 195.216L249.7 70.3966Z" fill="#91B3FA"/>
<g opacity="0.67">
<path d="M192.96 77.6608L160.639 77.6001L160.651 75.4083L192.936 75.4635L192.96 77.6608Z" fill="white"/>
<path d="M193.048 85.7342L160.595 85.6539L160.607 83.444L193.024 83.5189L193.048 85.7342Z" fill="white"/>
<path d="M193.138 93.8742L160.55 93.7741L160.563 91.5459L193.113 91.6407L193.138 93.8742Z" fill="white"/>
<path d="M193.228 102.082L160.505 101.962L160.518 99.715L193.203 99.83L193.228 102.082Z" fill="white"/>
<path d="M193.319 110.358L160.46 110.217L160.473 107.952L193.294 108.087L193.319 110.358Z" fill="white"/>
<path d="M193.503 127.119L160.368 126.936L160.381 124.632L193.477 124.81L193.503 127.119Z" fill="white"/>
<path d="M193.784 152.795L160.227 152.546L160.24 150.183L193.759 150.427L193.784 152.795Z" fill="white"/>
<path d="M193.41 118.704L160.414 118.541L160.427 116.257L193.385 116.413L193.41 118.704Z" fill="white"/>
<path d="M193.596 135.606L160.322 135.401L160.334 133.078L193.57 133.277L193.596 135.606Z" fill="white"/>
<path d="M193.69 144.164L160.275 143.937L160.287 141.594L193.664 141.816L193.69 144.164Z" fill="white"/>
<path d="M193.88 161.5L160.179 161.228L160.193 158.845L193.854 159.111L193.88 161.5Z" fill="white"/>
<path d="M193.976 170.28L160.131 169.985L160.145 167.582L193.95 167.87L193.976 170.28Z" fill="white"/>
<path d="M194.074 179.136L160.083 178.817L160.096 176.393L194.047 176.705L194.074 179.136Z" fill="white"/>
<path d="M194.172 188.068L160.034 187.725L160.047 185.28L194.145 185.616L194.172 188.068Z" fill="white"/>
<path d="M235.334 77.7403L202.811 77.6794L202.776 75.4805L235.262 75.5361L235.334 77.7403Z" fill="white"/>
<path d="M235.598 85.8394L202.94 85.7587L202.905 83.5418L235.525 83.617L235.598 85.8394Z" fill="white"/>
<path d="M235.864 94.0057L203.071 93.9048L203.035 91.6695L235.791 91.7648L235.864 94.0057Z" fill="white"/>
<path d="M236.132 102.24L203.202 102.119L203.166 99.865L236.059 99.9807L236.132 102.24Z" fill="white"/>
<path d="M236.403 110.543L203.335 110.401L203.298 108.129L236.329 108.265L236.403 110.543Z" fill="white"/>
<path d="M236.95 127.359L203.603 127.175L203.566 124.864L236.875 125.043L236.95 127.359Z" fill="white"/>
<path d="M237.79 153.122L204.014 152.871L203.976 150.501L237.712 150.746L237.79 153.122Z" fill="white"/>
<path d="M236.675 118.916L203.468 118.753L203.431 116.461L236.6 116.618L236.675 118.916Z" fill="white"/>
<path d="M237.228 135.875L203.739 135.668L203.701 133.338L237.152 133.538L237.228 135.875Z" fill="white"/>
<path d="M237.508 144.462L203.876 144.233L203.838 141.883L237.431 142.105L237.508 144.462Z" fill="white"/>
<path d="M238.074 161.857L204.153 161.583L204.115 159.192L237.996 159.46L238.074 161.857Z" fill="white"/>
<path d="M238.361 170.667L204.294 170.37L204.255 167.959L238.282 168.25L238.361 170.667Z" fill="white"/>
<path d="M238.65 179.554L204.436 179.233L204.397 176.801L238.571 177.115L238.65 179.554Z" fill="white"/>
<path d="M238.943 188.517L204.579 188.172L204.539 185.719L238.862 186.057L238.943 188.517Z" fill="white"/>
</g>
<path d="M171.158 15.0894C171.121 13.1028 169.511 11.468 167.538 11.468H92.9498C90.95 11.468 88.986 13.188 88.986 15.2016V195.181C88.986 196.15 89.5404 197.079 90.2215 197.763C90.9028 198.447 91.912 198.83 92.874 198.827L170.86 198.613C171.831 198.61 172.781 198.215 173.459 197.517C174.138 196.818 174.521 195.853 174.503 194.876L171.158 15.0894Z" fill="#7D97F4"/>
<g opacity="0.5">
<path d="M116.228 32.6764L94.9794 32.6477L94.8108 21.681H116.08L116.228 32.6764Z" fill="white"/>
<path d="M140.045 32.671L118.818 32.6421L118.673 21.681H139.921L140.045 32.671Z" fill="white"/>
<path d="M163.838 32.6654L142.633 32.6366L142.51 21.681H163.737L163.838 32.6654Z" fill="white"/>
<path d="M116.494 52.3613L95.282 52.3749L95.114 41.4799L116.346 41.4712L116.494 52.3613Z" fill="white"/>
<path d="M140.269 52.3459L119.079 52.3595L118.934 41.4699L140.145 41.4611L140.269 52.3459Z" fill="white"/>
<path d="M164.021 52.3307L142.852 52.3443L142.73 41.46L163.92 41.4512L164.021 52.3307Z" fill="white"/>
<path d="M116.758 71.9107L95.5835 71.9331L95.4161 61.0758L116.611 61.0582L116.758 71.9107Z" fill="white"/>
<path d="M140.493 71.8856L119.339 71.9079L119.195 61.0562L140.369 61.0386L140.493 71.8856Z" fill="white"/>
<path d="M164.203 71.8605L143.071 71.8829L142.95 61.0364L164.102 61.0189L164.203 71.8605Z" fill="white"/>
<path d="M117.022 91.3925L95.8841 91.4237L95.7173 80.6039L116.876 80.5777L117.022 91.3925Z" fill="white"/>
<path d="M140.715 91.3578L119.598 91.3888L119.455 80.5745L140.592 80.5483L140.715 91.3578Z" fill="white"/>
<path d="M164.385 91.3231L143.289 91.3541L143.168 80.5451L164.284 80.5189L164.385 91.3231Z" fill="white"/>
<path d="M117.285 110.807L96.1836 110.847L96.0173 100.064L117.139 100.029L117.285 110.807Z" fill="white"/>
<path d="M140.937 110.763L119.857 110.802L119.713 100.025L140.814 99.9905L140.937 110.763Z" fill="white"/>
<path d="M164.565 110.718L143.506 110.758L143.386 99.9863L164.465 99.9514L164.565 110.718Z" fill="white"/>
<path d="M117.547 130.155L96.4819 130.203L96.3163 119.458L117.401 119.414L117.547 130.155Z" fill="white"/>
<path d="M141.158 130.101L120.114 130.149L119.971 119.409L141.035 119.366L141.158 130.101Z" fill="white"/>
<path d="M164.746 130.047L143.723 130.095L143.603 119.36L164.646 119.317L164.746 130.047Z" fill="white"/>
<path d="M117.808 149.436L96.7793 149.492L96.6141 138.784L117.663 138.732L117.808 149.436Z" fill="white"/>
<path d="M141.378 149.372L120.371 149.429L120.228 138.726L141.256 138.674L141.378 149.372Z" fill="white"/>
<path d="M164.925 149.309L143.939 149.365L143.819 138.668L164.825 138.616L164.925 149.309Z" fill="white"/>
<path d="M118.068 168.65L97.0758 168.715L96.9111 158.044L117.923 157.984L118.068 168.65Z" fill="white"/>
<path d="M141.598 168.577L120.626 168.642L120.484 157.976L141.476 157.916L141.598 168.577Z" fill="white"/>
<path d="M165.104 168.504L144.154 168.569L144.034 157.909L165.005 157.848L165.104 168.504Z" fill="white"/>
<path d="M118.327 187.799L97.371 187.872L97.2071 177.238L118.183 177.169L118.327 187.799Z" fill="white"/>
<path d="M141.816 187.717L120.881 187.79L120.74 177.16L141.695 177.092L141.816 187.717Z" fill="white"/>
<path d="M165.282 187.634L144.368 187.708L144.249 177.083L165.183 177.015L165.282 187.634Z" fill="white"/>
</g>
<path d="M104.478 72.6899C104.438 71.3103 102.684 70.1752 100.535 70.1752H19.3027C17.1246 70.1752 14.9857 71.3695 14.9857 72.7677V197.746C14.9857 198.419 15.5895 199.064 16.3312 199.539C17.0731 200.014 18.1723 200.28 19.22 200.278L104.153 200.129C105.21 200.127 106.245 199.853 106.984 199.368C107.723 198.883 108.14 198.213 108.12 197.535L104.478 72.6899Z" fill="#91B3FA"/>
<g opacity="0.5">
<path d="M44.6546 84.9024L21.5132 84.8824L21.3296 77.2671H44.4935L44.6546 84.9024Z" fill="white"/>
<path d="M70.5934 84.8986L47.4753 84.8786L47.3169 77.267H70.4576L70.5934 84.8986Z" fill="white"/>
<path d="M96.5062 84.8946L73.4113 84.8748L73.2781 77.267H96.3954L96.5062 84.8946Z" fill="white"/>
<path d="M44.9438 98.5717L21.8427 98.5811L21.6598 91.0156L44.7832 91.0093L44.9438 98.5717Z" fill="white"/>
<path d="M70.8375 98.5608L47.7595 98.5704L47.6018 91.0085L70.7019 91.0025L70.8375 98.5608Z" fill="white"/>
<path d="M96.7051 98.5503L73.6504 98.5597L73.5176 91.0017L96.5947 90.9956L96.7051 98.5503Z" fill="white"/>
<path d="M45.232 112.147L22.171 112.162L21.9888 104.623L45.0721 104.611L45.232 112.147Z" fill="white"/>
<path d="M71.0806 112.129L48.0429 112.145L47.8856 104.609L70.9457 104.597L71.0806 112.129Z" fill="white"/>
<path d="M96.9034 112.112L73.8887 112.128L73.7565 104.596L96.7934 104.583L96.9034 112.112Z" fill="white"/>
<path d="M45.5192 125.675L22.4983 125.697L22.3167 118.183L45.3597 118.165L45.5192 125.675Z" fill="white"/>
<path d="M71.3229 125.651L48.325 125.673L48.1684 118.163L71.1884 118.145L71.3229 125.651Z" fill="white"/>
<path d="M97.101 125.627L74.1262 125.648L73.9944 118.142L96.9914 118.124L97.101 125.627Z" fill="white"/>
<path d="M45.8054 139.157L22.8245 139.184L22.6435 131.697L45.6464 131.673L45.8054 139.157Z" fill="white"/>
<path d="M71.5645 139.126L48.6065 139.153L48.4503 131.67L71.4304 131.646L71.5645 139.126Z" fill="white"/>
<path d="M97.2979 139.095L74.3628 139.122L74.2314 131.643L97.1886 131.618L97.2979 139.095Z" fill="white"/>
<path d="M46.0905 152.592L23.1494 152.625L22.969 145.164L45.9323 145.134L46.0905 152.592Z" fill="white"/>
<path d="M71.8051 152.554L48.8869 152.588L48.7312 145.13L71.6715 145.1L71.8051 152.554Z" fill="white"/>
<path d="M97.4941 152.517L74.5986 152.55L74.4677 145.096L97.3851 145.066L97.4941 152.517Z" fill="white"/>
<path d="M46.3749 165.98L23.4733 166.02L23.2935 158.584L46.2169 158.548L46.3749 165.98Z" fill="white"/>
<path d="M72.0449 165.936L49.1663 165.976L49.0112 158.543L71.9118 158.507L72.0449 165.936Z" fill="white"/>
<path d="M97.6896 165.892L74.8336 165.932L74.7032 158.503L97.581 158.467L97.6896 165.892Z" fill="white"/>
<path d="M46.658 179.323L23.7961 179.368L23.6169 171.958L46.5008 171.916L46.658 179.323Z" fill="white"/>
<path d="M72.284 179.272L49.4447 179.318L49.2902 171.911L72.1513 171.869L72.284 179.272Z" fill="white"/>
<path d="M97.8844 179.222L75.0678 179.267L74.9378 171.864L97.7762 171.822L97.8844 179.222Z" fill="white"/>
<path d="M46.9404 192.62L24.1177 192.671L23.9391 185.286L46.7836 185.239L46.9404 192.62Z" fill="white"/>
<path d="M72.5222 192.563L49.7221 192.614L49.568 185.233L72.39 185.185L72.5222 192.563Z" fill="white"/>
<path d="M98.0786 192.506L75.3012 192.557L75.1717 185.179L97.9707 185.131L98.0786 192.506Z" fill="white"/>
</g>
<path d="M258.752 224.485C266.799 224.879 275.504 214.87 277.328 205.083C279.205 195.012 272.54 191.906 270.602 178.609C268.399 163.505 275.912 160.056 278.066 138.931C278.552 134.165 281.364 106.583 272.214 102.859C263.754 99.416 243.898 115.893 242.599 133.378C241.672 145.846 250.863 149.649 249.741 164.177C248.756 176.924 241.354 178.212 240.285 190.528C238.984 205.522 248.186 223.966 258.752 224.485Z" fill="#7D97F4"/>
<path d="M259.866 228.057C255.329 212.107 255.689 186.399 256.789 167.642C257.981 147.334 260.273 130.572 260.295 130.405L260.974 130.499C260.951 130.666 258.663 147.405 257.473 167.687C256.376 186.39 256.015 212.013 260.525 227.87L259.866 228.057Z" fill="#91B3FA"/>
<path d="M265.228 221.687C252.387 217.404 244.941 196.841 250.578 188.871C254.388 183.485 261.7 187.342 267.228 181.507C274.286 174.057 266.515 163.392 270.433 147.324C273.767 133.65 284.738 119.462 292.678 120.745C300.99 122.088 308.236 140.748 303.35 153.454C300.173 161.718 293.52 163.161 293.187 170.428C292.801 178.859 301.56 181.277 302.868 189.183C305.218 203.384 282.217 227.353 265.228 221.687Z" fill="#91B3FA"/>
<path d="M272.493 226.097C272.423 226.108 272.348 226.104 272.275 226.082C272.017 226.004 271.87 225.731 271.949 225.473C282.492 190.576 281.099 152.27 281.084 151.887C281.073 151.617 281.283 151.39 281.553 151.379C281.822 151.368 282.05 151.578 282.061 151.848C282.076 152.233 283.475 190.704 272.885 225.755C272.829 225.941 272.673 226.069 272.493 226.097Z" fill="#7D97F4"/>
<path d="M294.947 159.651C294.897 159.659 294.845 159.651 294.797 159.625C294.684 159.562 294.643 159.42 294.705 159.307C298.649 152.147 302.619 141.702 299.136 132.604C297.062 127.185 293.277 124.791 293.239 124.767C293.129 124.7 293.095 124.556 293.163 124.446C293.231 124.336 293.375 124.302 293.485 124.37C293.645 124.47 297.442 126.872 299.572 132.437C301.53 137.551 302.346 146.403 295.115 159.532C295.078 159.598 295.015 159.64 294.947 159.651Z" fill="#BDD0FB"/>
<path d="M263.708 219.03C263.634 219.041 263.556 219.018 263.501 218.96C254.1 209.051 250.127 200.869 251.692 194.641C253.084 189.104 258.534 187.244 258.589 187.226C258.712 187.186 258.844 187.252 258.885 187.375C258.925 187.497 258.859 187.629 258.736 187.67C258.684 187.687 253.47 189.473 252.144 194.761C250.624 200.823 254.559 208.856 263.84 218.638C263.929 218.732 263.925 218.88 263.832 218.969C263.796 219.002 263.753 219.022 263.708 219.03Z" fill="#F0F0F0"/>
<path d="M171.853 151.891C206.531 160.562 226.877 183.742 236.91 186.086C246.942 188.43 287.13 190.574 293.683 196.662C300.236 202.75 293.976 207.077 302.402 214.905C311.723 241.208 282.862 249.079 282.862 249.079L20.5027 246.947C20.5027 246.947 2.79834 248.539 2.40623 235.895C2.014 223.251 1.73766 217.57 2.66753 206.184C3.5974 194.797 8.19579 193.517 10.7316 187.612C13.2674 181.707 37.8971 181.066 42.6904 174.498C47.4838 167.931 53.1904 157.457 73.5272 153.886C101.617 148.953 151.738 146.862 171.853 151.891Z" fill="url(#paint0_linear_21_461)"/>
<path d="M1 235.146C1.4511 249.68 26.0922 247.104 26.1997 247.095C26.1997 247.095 45.79 232.098 18.8401 232.674C10.7415 232.465 2.53078 228.175 2.53078 228.175L1 235.146Z" fill="url(#paint1_linear_21_461)"/>
<path d="M303.999 221.401C303.999 221.401 304.256 225.108 297.312 228.894C288.704 233.588 255.404 228.37 255.404 228.37V247.661L283.574 249.097C282.915 249.276 320.566 247.107 303.999 221.401Z" fill="url(#paint2_linear_21_461)"/>
<path d="M47.1322 193.533C47.1322 193.533 46.2869 186.934 53.2197 178.842C60.1525 170.751 64.1994 165.415 69.5309 164.04C74.8623 162.666 113.884 157.267 116.447 161.42C119.01 165.573 122.311 191.07 122.311 191.07L47.1322 193.533Z" fill="url(#paint3_linear_21_461)"/>
<path opacity="0.25" d="M70.2384 163.342C74.6099 162.691 107.801 158.832 116.371 159.933L118.589 168.465L47.0986 193.53C47.0986 193.53 46.7575 188.098 50.3289 182.743C56.329 173.746 65.6682 163.918 70.2384 163.342Z" fill="url(#paint4_linear_21_461)"/>
<path d="M128.119 161.415C129.2 166.342 133.182 190.364 133.182 190.364L217.559 189.974C217.559 189.974 190.961 165.532 170.514 161.664C150.068 157.795 127.428 158.81 128.119 161.415Z" fill="url(#paint5_linear_21_461)"/>
<path opacity="0.25" d="M167.629 159.85C150.974 157.539 144.868 157.977 127.41 159.506L129.091 166.489C129.091 166.489 155.075 161.393 179.285 164.34C179.285 164.34 173.066 160.605 167.629 159.85Z" fill="url(#paint6_linear_21_461)"/>
<path d="M291.738 195.405C291.738 195.405 278.068 191.022 274.733 201.83C271.554 212.132 302.401 214.905 302.401 214.905C302.401 214.905 300.127 199.621 291.738 195.405Z" fill="#BDD0FB"/>
<path d="M42.4625 181.857C42.5385 181.857 42.6152 181.846 42.6919 181.823C45.902 180.853 48.6058 177.472 51.7368 173.556C56.3088 167.838 61.4918 161.357 69.9429 159.745C86.1514 156.651 110.719 154.507 110.966 154.486C111.403 154.448 111.726 154.063 111.688 153.627C111.651 153.19 111.281 152.862 110.83 152.904C110.582 152.925 85.9319 155.076 69.6453 158.185C60.6183 159.908 55.0059 166.926 50.4967 172.565C47.5315 176.273 44.9704 179.476 42.2332 180.303C41.8129 180.43 41.5758 180.873 41.7029 181.293C41.8068 181.636 42.1215 181.857 42.4625 181.857Z" fill="#91B3FA"/>
<path d="M17.3387 190.855C17.6309 190.855 17.9123 190.693 18.0503 190.414C19.382 187.73 25.2774 186.513 30.9781 185.336C33.0176 184.915 35.1262 184.48 37.0649 183.972C37.4896 183.861 37.7431 183.428 37.6323 183.004C37.5207 182.579 37.0874 182.33 36.6633 182.436C34.764 182.934 32.6765 183.365 30.6571 183.781C24.3037 185.093 18.3029 186.331 16.6286 189.709C16.4332 190.102 16.5936 190.578 16.9867 190.773C17.0999 190.829 17.22 190.855 17.3387 190.855Z" fill="#91B3FA"/>
<path d="M133.269 245.4C133.295 245.4 133.321 245.4 133.347 245.4C133.808 245.4 134.177 244.988 134.171 244.527C134.166 244.193 133.966 243.894 133.681 243.764C132.038 241.121 129.906 212.544 128.937 194.93C128.911 194.469 128.518 194.111 128.057 194.139C127.597 194.164 127.245 194.556 127.27 195.017C127.277 195.141 127.964 207.589 128.949 219.847C130.953 244.797 132.188 245.4 133.269 245.4Z" fill="#91B3FA"/>
<path d="M104.749 246.879C104.939 245.77 105.045 244.173 105.045 242.728C105.045 225.42 91.0148 211.444 73.7076 211.444C56.4004 211.444 42.3703 225.393 42.3703 242.701C42.3703 244.146 42.4767 245.77 42.6662 246.879H104.749Z" fill="#7D97F4"/>
<path d="M73.4647 267.513C87.5705 267.513 99.0056 256.078 99.0056 241.972C99.0056 227.866 87.5705 216.431 73.4647 216.431C59.3588 216.431 47.9238 227.866 47.9238 241.972C47.9238 256.078 59.3588 267.513 73.4647 267.513Z" fill="url(#paint7_linear_21_461)"/>
<path opacity="0.54" d="M73.4646 262.714C84.92 262.714 94.2065 253.428 94.2065 241.972C94.2065 230.517 84.92 221.23 73.4646 221.23C62.0092 221.23 52.7228 230.517 52.7228 241.972C52.7228 253.428 62.0092 262.714 73.4646 262.714Z" fill="url(#paint8_linear_21_461)"/>
<path d="M90.8872 249.49C90.8392 249.49 90.7901 249.481 90.7431 249.461C90.555 249.381 90.4673 249.165 90.5467 248.976C91.4848 246.758 91.9606 244.402 91.9606 241.972C91.9606 232.05 83.8882 223.978 73.9659 223.978C70.8878 223.978 67.8504 224.768 65.1818 226.263C65.0027 226.364 64.7778 226.299 64.6785 226.122C64.5784 225.943 64.642 225.718 64.82 225.618C67.5992 224.061 70.7614 223.238 73.9659 223.238C84.2959 223.238 92.7001 231.642 92.7001 241.972C92.7001 244.501 92.2048 246.955 91.2277 249.265C91.168 249.406 91.0313 249.49 90.8872 249.49Z" fill="#91B3FA"/>
<path d="M260.389 248.358C260.579 247.249 260.685 245.723 260.685 244.278C260.685 226.971 246.655 213.03 229.347 213.03C212.04 213.03 198.01 226.926 198.01 244.233C198.01 245.679 198.116 247.249 198.306 248.358H260.389V248.358Z" fill="#7D97F4"/>
<path d="M229.105 269.135C243.21 269.135 254.646 257.7 254.646 243.594C254.646 229.488 243.21 218.053 229.105 218.053C214.999 218.053 203.564 229.488 203.564 243.594C203.564 257.7 214.999 269.135 229.105 269.135Z" fill="url(#paint9_linear_21_461)"/>
<path opacity="0.54" d="M229.105 264.336C240.56 264.336 249.846 255.049 249.846 243.594C249.846 232.138 240.56 222.852 229.105 222.852C217.649 222.852 208.363 232.138 208.363 243.594C208.363 255.049 217.649 264.336 229.105 264.336Z" fill="url(#paint10_linear_21_461)"/>
<path d="M246.527 251.112C246.479 251.112 246.43 251.103 246.383 251.083C246.195 251.003 246.107 250.786 246.187 250.598C247.125 248.38 247.601 246.024 247.601 243.594C247.601 233.671 239.528 225.599 229.606 225.599C226.528 225.599 223.49 226.389 220.822 227.885C220.642 227.985 220.418 227.921 220.318 227.744C220.218 227.565 220.282 227.34 220.46 227.24C223.239 225.683 226.401 224.86 229.606 224.86C239.936 224.86 248.34 233.264 248.34 243.594C248.34 246.123 247.845 248.577 246.867 250.886C246.808 251.028 246.671 251.112 246.527 251.112Z" fill="#91B3FA"/>
<path d="M203.737 188.195L197.333 181.481C194.664 178.683 191.305 176.774 187.657 175.98L174.99 173.225C171.514 172.468 168.187 175.097 167.806 178.901L167.717 179.794C167.33 183.669 170.166 187.038 173.778 186.994L190.097 186.794C192.373 186.766 194.441 188.217 195.34 190.473L195.64 191.228C196.039 192.229 196.953 192.878 197.963 192.878H201.976C204.245 192.878 205.365 189.901 203.737 188.195Z" fill="url(#paint11_linear_21_461)"/>
<path d="M137.684 195.859H158.847C160.498 195.859 161.661 197.629 161.089 199.299C160.121 202.125 157.814 205.73 152.332 206.151C147.402 206.53 141.188 203.518 136.501 200.657C134.376 199.36 135.242 195.859 137.684 195.859Z" fill="#7D97F4"/>
<path d="M2.58358 206.184L6.28396 206.843C7.515 207.062 8.4117 208.133 8.4117 209.384V218.116C8.4117 219.537 7.25941 220.689 5.83802 220.689H2.15149L2.58358 206.184Z" fill="#91B3FA"/>
<path d="M214.066 68.0094C214.066 86.9591 230.009 102.321 249.675 102.321C269.341 102.321 286.165 86.2879 286.165 67.3382C286.165 48.3886 269.341 33.698 249.675 33.698C230.009 33.698 214.066 49.0598 214.066 68.0094Z" fill="url(#paint12_linear_21_461)"/>
<path d="M283.369 59.6665C283.39 59.6665 283.411 59.6642 283.432 59.6588C283.564 59.6249 283.642 59.4954 283.607 59.3685C283.224 57.9822 282.734 56.6067 282.152 55.281C282.099 55.1607 281.954 55.1056 281.83 55.1551C281.705 55.2065 281.646 55.3451 281.699 55.4661C282.273 56.771 282.754 58.1251 283.132 59.4907C283.161 59.5967 283.261 59.6665 283.369 59.6665Z" fill="#91B3FA"/>
<path d="M277.928 48.9441C277.979 48.9441 278.031 48.9283 278.076 48.8963C278.184 48.8177 278.205 48.6688 278.124 48.5645C271.526 40.1344 260.899 35.102 249.696 35.102C244.912 35.102 240.284 36.0368 235.942 37.8795C235.818 37.9322 235.761 38.0726 235.816 38.1919C235.871 38.3117 236.016 38.3659 236.14 38.3135C240.419 36.4968 244.98 35.5759 249.696 35.5759C260.746 35.5759 271.226 40.538 277.731 48.8495C277.779 48.9117 277.853 48.9441 277.928 48.9441Z" fill="#91B3FA"/>
<path d="M218.911 68.0094C218.911 84.4126 232.711 97.7099 249.734 97.7099C266.758 97.7099 281.32 83.8315 281.32 67.4284C281.32 51.0254 266.758 38.309 249.734 38.309C232.711 38.309 218.911 51.6063 218.911 68.0094Z" fill="url(#paint13_linear_21_461)"/>
<path d="M250.603 38.3343L249.24 66.7045L218.722 66.7306C218.704 67.1551 218.689 67.5805 218.689 68.0094C218.689 84.4127 232.489 97.71 249.512 97.71C266.536 97.71 281.098 83.8316 281.098 67.4286C281.098 51.3773 267.152 38.8642 250.603 38.3343Z" fill="url(#paint14_linear_21_461)"/>
<path opacity="0.78" d="M222.174 69.3443C222.25 70.6051 223.373 71.5676 224.681 71.4942C225.989 71.4208 226.988 70.3392 226.912 69.0786C226.836 67.8178 225.714 66.8553 224.405 66.9288C223.097 67.0021 222.098 68.0836 222.174 69.3443Z" fill="white"/>
<path opacity="0.78" d="M254.365 89.8639C253.076 90.0907 252.221 91.2819 252.457 92.5241C252.693 93.7666 253.929 94.5897 255.218 94.3627C256.507 94.1359 257.362 92.9447 257.126 91.7025C256.89 90.4601 255.654 89.637 254.365 89.8639Z" fill="white"/>
<path opacity="0.78" d="M245.137 41.1848C243.848 41.4117 242.994 42.6027 243.229 43.8451C243.465 45.0874 244.701 45.9106 245.99 45.6835C247.279 45.4567 248.134 44.2657 247.898 43.0233C247.663 41.7811 246.427 40.9579 245.137 41.1848Z" fill="white"/>
<path opacity="0.78" d="M237.494 91.171C237.253 91.7572 237.313 92.3061 237.628 92.3971C237.944 92.4879 238.395 92.0864 238.636 91.5002C238.877 90.9139 238.817 90.3648 238.502 90.274C238.186 90.1831 237.735 90.5847 237.494 91.171Z" fill="white"/>
<path opacity="0.78" d="M226.724 82.3938C226.202 82.7741 225.958 83.2734 226.179 83.5089C226.399 83.7445 227.001 83.627 227.523 83.2466C228.045 82.8662 228.29 82.3668 228.069 82.1315C227.849 81.8959 227.246 82.0134 226.724 82.3938Z" fill="white"/>
<path opacity="0.78" d="M225.372 56.2503C224.781 55.9792 224.208 56.0004 224.093 56.2977C223.978 56.5949 224.364 57.0556 224.954 57.3268C225.545 57.598 226.118 57.5767 226.233 57.2793C226.348 56.9822 225.963 56.5215 225.372 56.2503Z" fill="white"/>
<path opacity="0.78" d="M271.801 79.1721C271.21 78.901 270.638 78.9222 270.523 79.2194C270.407 79.5167 270.793 79.9775 271.384 80.2485C271.975 80.5197 272.547 80.4983 272.662 80.2012C272.778 79.904 272.392 79.4431 271.801 79.1721Z" fill="white"/>
<path opacity="0.78" d="M235.182 46.4846C234.823 45.9572 234.322 45.6889 234.063 45.8853C233.805 46.0817 233.886 46.6684 234.245 47.1957C234.604 47.7232 235.105 47.9914 235.363 47.795C235.622 47.5987 235.541 47.0119 235.182 46.4846Z" fill="white"/>
<path opacity="0.78" d="M262.511 89.3031C262.152 88.7758 261.651 88.5076 261.392 88.7038C261.134 88.9001 261.215 89.4869 261.574 90.0143C261.933 90.5416 262.433 90.81 262.692 90.6136C262.951 90.4172 262.869 89.8304 262.511 89.3031Z" fill="white"/>
<path d="M250.092 67.7925L228.948 67.2494C228.538 67.2388 228.253 67.6592 228.428 68.0166L229.465 70.1427C229.667 70.5562 229.258 71.019 228.807 70.8886L211.441 65.8714C210.91 65.7179 210.954 64.9698 211.502 64.8478L229.192 60.9035C229.615 60.8091 229.963 61.2089 229.802 61.6037L228.715 64.2568C228.581 64.5846 228.8 64.9386 229.157 64.9686L250.182 66.7361C250.475 66.7607 250.688 67.0095 250.661 67.2966C250.635 67.5808 250.383 67.8001 250.092 67.7925Z" fill="url(#paint15_linear_21_461)"/>
<path d="M213.419 65.0429C213.257 65.1155 213.15 65.2681 213.142 65.4478C213.133 65.6628 213.268 65.8428 213.479 65.897L217.216 66.8523C217.345 66.8855 217.481 66.8087 217.518 66.6813C217.556 66.5538 217.481 66.4238 217.351 66.3906L213.615 65.4352C217.644 64.5946 227.04 62.5396 227.225 62.4768C227.352 62.4362 227.425 62.2982 227.385 62.1733C227.344 62.0505 227.21 61.9849 227.083 62.0247C226.808 62.1006 219.609 63.6794 213.519 65.0103C213.484 65.0179 213.45 65.0288 213.419 65.0429Z" fill="#BDD0FB"/>
<path d="M248.706 66.1868L248.743 48.2265C248.737 47.8289 248.293 47.5816 247.932 47.7752L245.788 48.927C245.371 49.1509 244.877 48.7872 244.993 48.3406L249.428 31.1686C249.563 30.6434 250.335 30.6345 250.484 31.1566L255.284 48.0252C255.399 48.4289 255.002 48.7939 254.589 48.6643L251.813 47.7946C251.47 47.6871 251.115 47.9242 251.099 48.2715L249.797 66.2018C249.784 66.4873 249.536 66.7104 249.24 66.7044C248.946 66.6986 248.71 66.4698 248.706 66.1868Z" fill="url(#paint16_linear_21_461)"/>
<path d="M253.811 46.3785C253.841 46.3785 253.871 46.3734 253.901 46.3623C254.026 46.3151 254.088 46.1804 254.042 46.0596C253.952 45.7996 252.026 38.9327 250.401 33.1225C250.343 32.917 250.162 32.7818 249.935 32.7869C249.714 32.7924 249.534 32.9363 249.487 33.1451L248.66 36.831C248.632 36.9587 248.716 37.085 248.849 37.1124C248.98 37.1406 249.112 37.0592 249.141 36.931L249.968 33.2452C251.002 37.0907 253.51 46.0519 253.582 46.2282C253.62 46.3217 253.713 46.3785 253.811 46.3785Z" fill="#BDD0FB"/>
<path d="M249.894 69.592C251.293 69.592 252.428 68.4985 252.428 67.1497C252.428 65.801 251.293 64.7075 249.894 64.7075C248.494 64.7075 247.359 65.801 247.359 67.1497C247.359 68.4985 248.494 69.592 249.894 69.592Z" fill="url(#paint17_linear_21_461)"/>
<path opacity="0.78" d="M258.119 44.9988C257.878 45.5851 257.939 46.134 258.254 46.2248C258.569 46.3157 259.021 45.9142 259.262 45.328C259.503 44.7417 259.443 44.1927 259.127 44.1018C258.812 44.0109 258.361 44.4125 258.119 44.9988Z" fill="white"/>
<path opacity="0.78" d="M269.232 53.2521C268.71 53.6325 268.466 54.1318 268.686 54.3673C268.907 54.603 269.509 54.4854 270.031 54.1051C270.553 53.7246 270.797 53.2253 270.577 52.9898C270.356 52.7543 269.754 52.8718 269.232 53.2521Z" fill="white"/>
<path d="M86.8201 298.876C86.8217 298.772 86.8148 298.667 86.7881 298.561C85.2162 292.329 77.4146 288.447 77.4146 288.447L74.323 288.689C72.5455 294.182 72.7739 297.551 73.0594 299.051C73.0673 299.093 73.08 299.133 73.0912 299.174C75.6415 299.402 80.8905 299.551 86.8201 298.876Z" fill="url(#paint18_linear_21_461)"/>
<path d="M73.0912 299.174C73.229 299.675 73.5988 300.065 74.0723 300.165C77.7001 300.928 83.4659 300.314 85.8867 299.997C86.4208 299.928 86.8112 299.434 86.8201 298.876C80.8905 299.551 75.6415 299.402 73.0912 299.174Z" fill="url(#paint19_linear_21_461)"/>
<path d="M73.0799 284.085L74.3893 290.388C74.4852 290.85 74.84 291.196 75.2699 291.236C75.7962 291.286 76.5451 291.315 77.2985 291.204C77.9739 291.105 78.4444 290.418 78.3246 289.682L77.4145 284.085L73.0799 284.085Z" fill="url(#paint20_linear_21_461)"/>
<path d="M100.209 299.094C96.7947 298.999 95.0287 298.597 94.1157 298.223C94.1136 298.563 94.1155 298.908 94.1266 299.266C94.1383 299.649 94.4215 299.954 94.7699 299.952L113.517 299.831C114.115 299.827 114.465 299.133 114.205 298.584C111.747 298.788 105.487 299.242 100.209 299.094Z" fill="url(#paint21_linear_21_461)"/>
<path d="M114.206 298.584C114.183 298.537 114.164 298.488 114.131 298.443C112.476 296.13 108.259 291.523 99.9265 289.525L95.9292 289.399C95.9292 289.399 94.1492 292.493 94.1156 298.224C95.0287 298.597 96.7946 298.999 100.209 299.094C105.487 299.242 111.747 298.788 114.206 298.584Z" fill="url(#paint22_linear_21_461)"/>
<path d="M95.0101 283.527C95.0732 283.822 95.9049 288.307 96.2271 290.046C96.3037 290.459 96.6256 290.762 97.0087 290.784C97.6931 290.822 98.7971 290.827 99.7464 290.569C100.258 290.43 100.603 289.908 100.566 289.328L100.119 282.234L95.0101 283.527Z" fill="url(#paint23_linear_21_461)"/>
<path d="M91.981 200.715C91.981 200.715 97.4797 238.499 101.448 283.462C101.522 284.3 100.854 285.029 100.032 285.202C98.8197 285.457 97.0378 285.76 95.5627 285.719C94.7753 285.697 94.1169 285.113 93.9844 284.336C92.6327 276.409 82.9863 233.862 80.4545 224.497C80.4545 224.497 77.5463 264.274 78.4759 284.911C78.499 285.424 78.1234 285.869 77.6132 285.928C76.8392 286.017 75.6009 286.085 74.025 285.918C73.4269 285.854 72.9444 285.402 72.8588 284.807C71.8959 278.097 66.3537 238.16 66.5893 209.391C66.6027 207.769 68.4928 194.439 68.4928 194.439L91.981 200.715Z" fill="url(#paint24_linear_21_461)"/>
<path d="M139.115 164.59C139.115 164.59 137.575 160.538 135.777 160.909C133.979 161.28 132.013 162.662 132.013 162.662L129.124 166.568C129.124 166.568 137.233 169.762 140.084 167.932C140.084 167.932 148.366 169.363 158.825 167.647C157.311 164.45 156.409 161.25 155.879 158.766C150.582 161.764 144.876 164.004 139.115 164.59Z" fill="url(#paint25_linear_21_461)"/>
<path d="M182.986 135.199C182.986 135.199 171.128 150.134 155.879 158.766C156.409 161.25 157.311 164.45 158.825 167.647C166.736 166.349 175.891 163.251 183.653 156.367L182.986 135.199Z" fill="url(#paint26_linear_21_461)"/>
<path d="M94.1118 137.174L94.8481 156.946C96.9391 157.665 98.9299 158.225 100.826 158.643C102.011 154.825 104.622 150.14 106.76 146.656C98.905 143.879 94.1118 137.174 94.1118 137.174Z" fill="url(#paint27_linear_21_461)"/>
<path d="M133.33 136.838C122.555 148.472 113.833 149.156 106.76 146.656C104.622 150.14 102.011 154.826 100.826 158.643C129.601 164.987 136.377 138.533 136.377 138.533L133.33 136.838Z" fill="url(#paint28_linear_21_461)"/>
<path d="M67.6663 202.893C67.101 202.692 66.7068 202.179 66.6453 201.582C65.9141 194.488 62.3736 150.502 84.7255 132.407C84.7255 132.407 86.0073 129.053 96.5434 137.297C107.08 145.541 101.439 154.182 98.9161 166.101C95.8636 180.523 90.5079 192.312 92.8775 201.187C93.0411 201.799 92.719 202.443 92.1243 202.662C83.9399 205.679 75.7868 205.778 67.6663 202.893Z" fill="url(#paint29_linear_21_461)"/>
<path d="M93.4444 119.228C93.4374 119.854 84.512 132.531 84.512 132.531C84.512 132.531 86.1141 135.686 93.7622 138.248L100.364 124.674L93.4444 119.228Z" fill="url(#paint30_linear_21_461)"/>
<path d="M89.9344 162.754C89.9344 162.754 106.868 176.936 125.154 170.747C126.288 170.364 127.528 170.447 128.587 171.006L133.844 173.782C136.05 174.948 138.782 174.183 140.063 172.041C140.793 170.819 141.416 169.424 141.54 168.087L131.254 163.923L132.013 162.662C132.013 162.662 126.99 162.236 125.676 165.836C125.676 165.836 116.11 169.814 99.9776 152.07C99.9776 152.07 92.6569 158.295 89.9344 162.754Z" fill="url(#paint31_linear_21_461)"/>
<path d="M89.023 162.607C88.9672 162.607 88.9106 162.591 88.861 162.557C81.7308 157.74 78.3767 149.964 78.3436 149.886C78.2813 149.738 78.3501 149.568 78.4973 149.506C78.645 149.443 78.8146 149.512 78.8774 149.66C78.9097 149.736 82.2017 157.358 89.1854 162.077C89.3181 162.166 89.353 162.346 89.2632 162.48C89.2075 162.562 89.116 162.607 89.023 162.607Z" fill="url(#paint32_linear_21_461)"/>
<path d="M99.6433 151.83C99.5482 151.83 99.4547 151.783 99.3994 151.696C99.3777 151.663 97.1996 148.273 93.0507 140.843C91.7749 138.559 90.0982 137.112 88.0671 136.544C84.7036 135.604 81.4622 137.407 81.4301 137.425C81.2906 137.502 81.1142 137.456 81.035 137.317C80.956 137.177 81.0044 137.001 81.1436 136.921C81.2835 136.842 84.6175 134.977 88.2179 135.985C90.4055 136.595 92.2019 138.134 93.5567 140.56C97.6951 147.971 99.8651 151.349 99.8866 151.383C99.9732 151.517 99.9345 151.696 99.7999 151.783C99.7514 151.815 99.6971 151.83 99.6433 151.83Z" fill="url(#paint33_linear_21_461)"/>
<path d="M100.472 111.963C100.472 111.963 103.647 119.259 103.861 123.088C104.074 126.917 104.899 129.402 100.472 130.173C96.0442 130.944 92.3144 128.738 90.2938 124.924C90.2938 124.924 87.1279 119.047 87.8381 116.64C88.5483 114.233 100.472 111.963 100.472 111.963Z" fill="url(#paint34_linear_21_461)"/>
<path d="M91.8069 122.182L92.0588 122.071C92.3797 121.929 92.517 121.547 92.3558 121.236C91.7315 120.029 90.5143 117.265 92.0867 116.62C94.113 115.789 102.14 114.152 103.871 111.304C105.536 108.567 104.061 105.034 101.845 104.029C101.696 103.962 101.522 104.015 101.446 104.159L101.261 104.508C101.134 104.748 100.781 104.712 100.706 104.451C100.634 104.202 100.302 104.154 100.164 104.374C99.6317 105.226 98.1945 106.607 94.3513 107.317C88.8893 108.325 85.2781 110.535 85.1883 114.309C85.1826 114.549 84.9275 114.682 84.7226 114.558C84.3194 114.312 83.674 114.197 82.8115 114.922C81.3114 116.183 81.9253 119.455 85.2136 122.146C85.3698 122.274 85.3686 122.518 85.1995 122.628C84.6033 123.016 83.7146 123.94 86.0173 125.17C88.3991 126.444 90.1776 126.339 90.8625 126.226C91.0329 126.198 91.1427 126.033 91.1055 125.864L90.3746 122.547C90.3332 122.359 90.4762 122.182 90.6684 122.182H91.8069Z" fill="url(#paint35_linear_21_461)"/>
<path d="M91.9443 122.882C91.9443 122.882 90.7328 118.221 88.6435 119.528C86.5542 120.835 89.7277 124.75 91.4075 124.924L91.9443 122.882Z" fill="url(#paint36_linear_21_461)"/>
<path d="M128.587 171.006C128.587 171.006 132.89 175.215 133.72 174.602C134.016 174.384 134.762 173.593 135.484 172.711C135.995 172.088 136.047 171.209 135.61 170.534L134.595 168.968C133.628 167.476 131.557 167.163 130.216 168.33C129.539 168.919 128.925 169.772 128.587 171.006Z" fill="url(#paint37_linear_21_461)"/>
<path d="M197.775 201.396C195.456 190.381 193.137 184.004 185.372 163.125C182.928 156.555 180.709 149.907 181.782 142.979L182.986 135.199C182.986 135.199 198.076 130.093 214.803 134.984C214.803 134.984 237.624 144.898 222.124 193.86C215.137 201.676 206.96 203.904 197.775 201.396Z" fill="url(#paint38_linear_21_461)"/>
<path d="M185.555 125.269L189.468 134.669C189.715 135.263 190.249 135.686 190.883 135.795C193.139 136.181 198.596 136.786 202.179 134.43C202.606 134.149 202.714 133.568 202.422 133.149L195.193 122.771L185.555 125.269Z" fill="url(#paint39_linear_21_461)"/>
<path d="M189.602 110.886C189.438 111.041 182.666 124.338 182.666 124.338L190.341 128.043L198.631 116.393C198.631 116.393 192.353 108.297 189.602 110.886Z" fill="url(#paint40_linear_21_461)"/>
<path d="M195.143 117.791L191.316 124.172C191.257 124.269 191.188 124.356 191.106 124.433C190.65 124.857 189.091 126.091 187.886 124.411C186.859 122.98 185.895 121.678 184.862 121.142C184.259 120.828 183.517 121.078 183.211 121.685C182.58 122.935 181.359 125.483 180.591 127.899C180.399 128.505 180.711 129.155 181.3 129.393C182.854 130.023 185.926 131.162 188.651 131.538C189.099 131.599 189.542 131.411 189.808 131.046C190.981 129.439 194.286 124.95 195.414 123.826C196.462 122.782 198.396 123.176 199.267 123.427C199.598 123.522 199.95 123.476 200.245 123.298C201.129 122.766 202.672 121.439 201.261 119.194C200.91 118.636 201.089 117.892 201.64 117.53C202.627 116.88 203.698 115.661 202.677 113.688C201.644 111.689 199.799 111.51 198.543 111.664C197.987 111.731 197.422 111.44 197.209 110.922C197.114 110.692 196.926 110.495 196.577 110.424C195.919 110.291 195.486 109.689 195.616 109.029C195.837 107.898 195.67 106.429 193.865 105.437C190.554 103.616 187.653 106.583 186.915 109.087C186.178 111.591 189.88 113.361 192.209 113.656C193.92 113.873 194.858 115.74 195.235 116.716C195.372 117.07 195.338 117.465 195.143 117.791Z" fill="url(#paint41_linear_21_461)"/>
<path d="M193.976 126.17C193.976 126.17 195.448 121.862 197.333 122.02C199.218 122.178 200.701 124.055 198.365 126.166C195.46 128.792 193.976 126.17 193.976 126.17Z" fill="url(#paint42_linear_21_461)"/>
<path d="M196.289 298.474C199.934 298.789 206.259 299.3 211.246 299.52C214.243 299.652 215.969 299.358 216.963 298.96C216.961 299.072 216.958 299.178 216.954 299.277C216.93 299.801 216.503 300.221 215.974 300.251C206.551 300.777 199.058 300.433 196.39 300.27C195.838 300.237 195.509 299.637 195.791 299.167C195.933 298.932 196.103 298.701 196.289 298.474Z" fill="url(#paint43_linear_21_461)"/>
<path d="M211.246 299.52C206.259 299.3 199.934 298.789 196.289 298.474C199.872 294.078 211.246 291.114 211.246 291.114H214.458C216.667 294.299 216.987 297.331 216.963 298.96C215.969 299.358 214.243 299.652 211.246 299.52Z" fill="url(#paint44_linear_21_461)"/>
<path d="M214.999 285.87L214.698 291.819C214.666 292.463 214.183 293.004 213.538 293.096C212.896 293.188 212.037 293.2 211.125 292.897C210.565 292.71 210.148 292.237 210.045 291.661L209.006 285.87H214.999Z" fill="url(#paint45_linear_21_461)"/>
<path d="M256.72 299.475C258.301 299.255 259.016 298.434 259.316 297.556C259.318 297.564 259.32 297.572 259.322 297.58C259.554 298.506 259.015 299.465 257.937 299.921C256.635 300.473 255.211 300.567 254.105 300.522C252.919 300.473 251.83 299.982 251.231 299.196L251.222 299.184C252.413 299.774 254.084 299.843 256.72 299.475Z" fill="url(#paint46_linear_21_461)"/>
<path d="M249.268 285.832H251.917C255.952 285.75 258.486 294.26 259.316 297.556C259.016 298.434 258.301 299.255 256.72 299.475C254.084 299.843 252.413 299.774 251.222 299.184C249.042 296.316 247.961 292.114 247.442 289.663C246.851 286.874 249.268 285.832 249.268 285.832Z" fill="url(#paint47_linear_21_461)"/>
<path d="M251.577 280.311L253.048 286.162C253.228 286.879 252.885 287.621 252.222 287.961C251.399 288.384 250.24 288.827 249.176 288.699C248.675 288.638 248.259 288.286 248.094 287.814L245.934 281.659L251.577 280.311Z" fill="url(#paint48_linear_21_461)"/>
<path d="M253.331 282.002C251.501 283.626 245.549 283.84 245.549 283.84C224.106 232.376 215.167 218.209 215.167 218.209C218.263 237.633 215.834 287.494 215.834 287.494C212.296 289.055 207.734 287.494 207.734 287.494C207.447 255.693 202.969 221.521 197.195 199.657C211.687 199.331 219.563 196.172 222.08 194.181C234.16 213.658 253.331 282.002 253.331 282.002Z" fill="url(#paint49_linear_21_461)"/>
<path d="M132.418 134.569C132.418 134.569 131.475 132.864 131.577 131.493C131.678 130.122 130.823 128.109 131.733 128.257C132.642 128.406 132.83 128.285 133.076 129.93C133.323 131.575 135.543 137.644 132.418 134.569Z" fill="url(#paint50_linear_21_461)"/>
<path d="M139.288 124.391C139.278 124.133 139.154 123.894 138.949 123.737C138.745 123.581 138.481 123.523 138.23 123.58L131.959 125.007C131.715 125.062 131.552 125.291 131.58 125.54L133.403 141.84C133.411 141.91 133.447 141.974 133.502 142.018C133.558 142.062 133.628 142.082 133.699 142.073L139.173 141.41C139.621 141.356 139.953 140.966 139.935 140.515L139.288 124.391Z" fill="url(#paint51_linear_21_461)"/>
<path d="M137.524 125.331C137.516 125.185 137.443 125.05 137.326 124.963C137.208 124.877 137.057 124.847 136.916 124.882L132.789 125.914C132.551 125.974 132.393 126.201 132.421 126.445L133.986 140.326C133.995 140.399 134.033 140.465 134.091 140.509C134.15 140.552 134.224 140.57 134.296 140.557L138.101 139.88C138.233 139.856 138.327 139.738 138.319 139.604L137.524 125.331Z" fill="url(#paint52_linear_21_461)"/>
<path d="M135.154 124.957C135.164 125.007 135.096 125.062 135.003 125.082L133.623 125.367C133.529 125.387 133.445 125.363 133.435 125.314L133.425 125.266C133.415 125.217 133.483 125.161 133.576 125.142L134.956 124.856C135.049 124.836 135.133 124.861 135.144 124.91L135.154 124.957Z" fill="url(#paint53_linear_21_461)"/>
<path d="M141.466 128.532C140.453 128.159 138.47 124.728 138.091 125.856C137.711 126.985 138.251 128.532 138.091 129.012C137.93 129.492 136.833 132.159 137.327 133.386C137.683 134.271 138.271 136.995 138.57 138.444C138.67 138.924 139.093 139.269 139.584 139.269C140.075 139.27 140.498 138.925 140.598 138.445C140.638 138.252 142.479 128.905 141.466 128.532Z" fill="url(#paint54_linear_21_461)"/>
<path d="M207.816 186.398C207.329 186.501 206.94 186.802 206.751 187.222L204.148 193.031C203.803 193.801 204.219 194.752 205.085 195.179L218.284 201.672C218.738 201.895 219.253 201.94 219.701 201.795C220.149 201.65 220.489 201.329 220.635 200.912L222.169 196.545C222.407 195.867 222.092 195.076 221.406 194.627L209.278 186.691C208.838 186.403 208.303 186.296 207.816 186.398Z" fill="url(#paint55_linear_21_461)"/>
<path d="M230.241 174.544C233.063 153.228 216.636 136.837 216.636 136.837L206.862 148.231C214.282 157.48 217.81 165.956 219.421 172.612C221.558 171.99 226.702 171.007 230.241 174.544Z" fill="url(#paint56_linear_21_461)"/>
<path d="M219.42 173.218C219.147 173.218 218.899 173.032 218.832 172.755C216.846 164.549 212.66 156.425 206.39 148.61C206.181 148.35 206.223 147.968 206.483 147.759C206.743 147.551 207.125 147.592 207.334 147.853C213.716 155.808 217.981 164.09 220.009 172.47C220.088 172.795 219.888 173.122 219.563 173.201C219.515 173.212 219.468 173.218 219.42 173.218Z" fill="url(#paint57_linear_21_461)"/>
<path d="M219.563 173.201C221.061 179.388 220.761 184.207 220.533 186.411C220.447 187.242 219.779 187.89 218.946 187.949C218 188.015 216.711 188.102 215.56 188.168C214.295 188.241 212.89 187.441 211.951 186.773C211.471 186.432 210.851 186.963 211.119 187.487C211.82 188.859 213.599 190.079 214.825 190.798C215.271 191.059 215.188 191.726 214.69 191.866L211.325 192.82C210.944 192.928 210.658 193.243 210.587 193.633C210.516 194.022 210.673 194.417 210.991 194.653C218.736 200.396 223.752 192.388 223.752 192.388C227.556 186.511 229.522 179.972 230.241 174.544C226.649 170.212 221.7 172.578 219.563 173.201Z" fill="url(#paint58_linear_21_461)"/>
<path d="M127.125 111.426C128.322 110.424 132.867 102.803 140.138 111.424C140.925 111.835 142.959 110.685 142.7 109.879C134.191 97.4682 123.593 109.116 124.633 110.393C125.672 111.67 125.732 112.592 127.125 111.426Z" fill="white"/>
<path d="M147.833 106.258C149.42 106.072 150.912 104.989 150.465 103.601C150.026 102.234 134.88 84.5404 118.011 104.486C117.804 104.73 117.703 105.048 117.731 105.367C117.759 105.686 117.913 105.981 118.159 106.186C118.928 106.826 119.582 107.256 120.431 107.151C135.867 89.6474 146.245 106.444 147.833 106.258Z" fill="white"/>
<path d="M155.717 100.972C156.844 101.198 159.149 100.351 158.553 98.4985C131.894 69.4923 108.152 99.8944 109.023 101.121C109.894 102.347 111.66 102.393 112.371 101.979C133.597 74.752 154.589 100.746 155.717 100.972Z" fill="white"/>
<path d="M133.519 119.389C135.469 119.389 137.05 117.808 137.05 115.857C137.05 113.907 135.469 112.326 133.519 112.326C131.568 112.326 129.987 113.907 129.987 115.857C129.987 117.808 131.568 119.389 133.519 119.389Z" fill="white"/>
<defs>
<linearGradient id="paint0_linear_21_461" x1="151.535" y1="159.975" x2="155.232" y2="306.389" gradientUnits="userSpaceOnUse">
<stop stop-color="#4F52FF"/>
<stop offset="1" stop-color="#4042E2"/>
</linearGradient>
<linearGradient id="paint1_linear_21_461" x1="58.0814" y1="135.733" x2="39.7806" y2="180.098" gradientUnits="userSpaceOnUse">
<stop stop-color="#4F52FF"/>
<stop offset="1" stop-color="#4042E2"/>
</linearGradient>
<linearGradient id="paint2_linear_21_461" x1="310.472" y1="132.126" x2="291.617" y2="197.566" gradientUnits="userSpaceOnUse">
<stop stop-color="#4F52FF"/>
<stop offset="1" stop-color="#4042E2"/>
</linearGradient>
<linearGradient id="paint3_linear_21_461" x1="119.566" y1="101.19" x2="68.7417" y2="231.324" gradientUnits="userSpaceOnUse">
<stop stop-color="#09005D"/>
<stop offset="1" stop-color="#1A0F91"/>
</linearGradient>
<linearGradient id="paint4_linear_21_461" x1="220.954" y1="-284.669" x2="166.312" y2="-101.007" gradientUnits="userSpaceOnUse">
<stop stop-color="#5AB6FF"/>
<stop offset="1" stop-color="#2F68E3"/>
</linearGradient>
<linearGradient id="paint5_linear_21_461" x1="191.005" y1="129.043" x2="140.183" y2="259.225" gradientUnits="userSpaceOnUse">
<stop stop-color="#09005D"/>
<stop offset="1" stop-color="#1A0F91"/>
</linearGradient>
<linearGradient id="paint6_linear_21_461" x1="280.908" y1="-266.832" x2="226.266" y2="-83.1707" gradientUnits="userSpaceOnUse">
<stop stop-color="#5AB6FF"/>
<stop offset="1" stop-color="#2F68E3"/>
</linearGradient>
<linearGradient id="paint7_linear_21_461" x1="47.9238" y1="241.972" x2="99.0056" y2="241.972" gradientUnits="userSpaceOnUse">
<stop stop-color="#09005D"/>
<stop offset="1" stop-color="#1A0F91"/>
</linearGradient>
<linearGradient id="paint8_linear_21_461" x1="73.4646" y1="70.1087" x2="73.4646" y2="249.816" gradientUnits="userSpaceOnUse">
<stop stop-color="#4F52FF"/>
<stop offset="1" stop-color="#4042E2"/>
</linearGradient>
<linearGradient id="paint9_linear_21_461" x1="203.564" y1="243.594" x2="254.646" y2="243.594" gradientUnits="userSpaceOnUse">
<stop stop-color="#09005D"/>
<stop offset="1" stop-color="#1A0F91"/>
</linearGradient>
<linearGradient id="paint10_linear_21_461" x1="224.31" y1="101.557" x2="230.226" y2="276.809" gradientUnits="userSpaceOnUse">
<stop stop-color="#4F52FF"/>
<stop offset="1" stop-color="#4042E2"/>
</linearGradient>
<linearGradient id="paint11_linear_21_461" x1="167.681" y1="182.986" x2="204.509" y2="182.986" gradientUnits="userSpaceOnUse">
<stop stop-color="#4F52FF"/>
<stop offset="1" stop-color="#4042E2"/>
</linearGradient>
<linearGradient id="paint12_linear_21_461" x1="225.586" y1="40.0523" x2="317.147" y2="144.417" gradientUnits="userSpaceOnUse">
<stop stop-color="#09005D"/>
<stop offset="1" stop-color="#1A0F91"/>
</linearGradient>
<linearGradient id="paint13_linear_21_461" x1="234.76" y1="-41.2475" x2="268.039" y2="195.035" gradientUnits="userSpaceOnUse">
<stop stop-color="#FEBBBA"/>
<stop offset="1" stop-color="#FF928E"/>
</linearGradient>
<linearGradient id="paint14_linear_21_461" x1="347.673" y1="-98.8033" x2="284.818" y2="10.268" gradientUnits="userSpaceOnUse">
<stop stop-color="#FF928E"/>
<stop offset="1" stop-color="#FE7062"/>
</linearGradient>
<linearGradient id="paint15_linear_21_461" x1="227.235" y1="81.302" x2="214.043" y2="135.79" gradientUnits="userSpaceOnUse">
<stop stop-color="#4F52FF"/>
<stop offset="1" stop-color="#4042E2"/>
</linearGradient>
<linearGradient id="paint16_linear_21_461" x1="250.776" y1="45.2066" x2="265.737" y2="-28.0242" gradientUnits="userSpaceOnUse">
<stop stop-color="#4F52FF"/>
<stop offset="1" stop-color="#4042E2"/>
</linearGradient>
<linearGradient id="paint17_linear_21_461" x1="248.447" y1="75.8803" x2="255.534" y2="33.0996" gradientUnits="userSpaceOnUse">
<stop stop-color="#4F52FF"/>
<stop offset="1" stop-color="#4042E2"/>
</linearGradient>
<linearGradient id="paint18_linear_21_461" x1="72.8641" y1="293.906" x2="86.8203" y2="293.906" gradientUnits="userSpaceOnUse">
<stop stop-color="#09005D"/>
<stop offset="1" stop-color="#1A0F91"/>
</linearGradient>
<linearGradient id="paint19_linear_21_461" x1="107.803" y1="277.442" x2="57.0294" y2="317.309" gradientUnits="userSpaceOnUse">
<stop stop-color="#4F52FF"/>
<stop offset="1" stop-color="#4042E2"/>
</linearGradient>
<linearGradient id="paint20_linear_21_461" x1="76.7452" y1="278.018" x2="74.0794" y2="301.284" gradientUnits="userSpaceOnUse">
<stop stop-color="#FEBBBA"/>
<stop offset="1" stop-color="#FF928E"/>
</linearGradient>
<linearGradient id="paint21_linear_21_461" x1="116.822" y1="288.912" x2="66.049" y2="328.78" gradientUnits="userSpaceOnUse">
<stop stop-color="#4F52FF"/>
<stop offset="1" stop-color="#4042E2"/>
</linearGradient>
<linearGradient id="paint22_linear_21_461" x1="94.1157" y1="294.261" x2="114.206" y2="294.261" gradientUnits="userSpaceOnUse">
<stop stop-color="#09005D"/>
<stop offset="1" stop-color="#1A0F91"/>
</linearGradient>
<linearGradient id="paint23_linear_21_461" x1="98.097" y1="280.475" x2="96.8998" y2="303.863" gradientUnits="userSpaceOnUse">
<stop stop-color="#FEBBBA"/>
<stop offset="1" stop-color="#FF928E"/>
</linearGradient>
<linearGradient id="paint24_linear_21_461" x1="110.268" y1="187.493" x2="93.2605" y2="222.248" gradientUnits="userSpaceOnUse">
<stop stop-color="#020039"/>
<stop offset="1" stop-color="#090056"/>
</linearGradient>
<linearGradient id="paint25_linear_21_461" x1="129.124" y1="163.632" x2="158.825" y2="163.632" gradientUnits="userSpaceOnUse">
<stop stop-color="#FEBBBA"/>
<stop offset="1" stop-color="#FF928E"/>
</linearGradient>
<linearGradient id="paint26_linear_21_461" x1="275.092" y1="-14.9237" x2="236.827" y2="47.7427" gradientUnits="userSpaceOnUse">
<stop stop-color="#FF928E"/>
<stop offset="1" stop-color="#FE7062"/>
</linearGradient>
<linearGradient id="paint27_linear_21_461" x1="108.119" y1="137.041" x2="92.5607" y2="152.917" gradientUnits="userSpaceOnUse">
<stop stop-color="#E1473D"/>
<stop offset="1" stop-color="#E9605A"/>
</linearGradient>
<linearGradient id="paint28_linear_21_461" x1="147.556" y1="135.176" x2="100.96" y2="158.355" gradientUnits="userSpaceOnUse">
<stop stop-color="#FEBBBA"/>
<stop offset="1" stop-color="#FF928E"/>
</linearGradient>
<linearGradient id="paint29_linear_21_461" x1="166.282" y1="114.813" x2="149.521" y2="126.152" gradientUnits="userSpaceOnUse">
<stop stop-color="#FF928E"/>
<stop offset="1" stop-color="#FE7062"/>
</linearGradient>
<linearGradient id="paint30_linear_21_461" x1="87.3804" y1="142.414" x2="93.572" y2="125.506" gradientUnits="userSpaceOnUse">
<stop stop-color="#FEBBBA"/>
<stop offset="1" stop-color="#FF928E"/>
</linearGradient>
<linearGradient id="paint31_linear_21_461" x1="118.062" y1="162.076" x2="72.0308" y2="242.06" gradientUnits="userSpaceOnUse">
<stop stop-color="#FEBBBA"/>
<stop offset="1" stop-color="#FF928E"/>
</linearGradient>
<linearGradient id="paint32_linear_21_461" x1="-622.194" y1="-304.824" x2="-604.447" y2="-293.239" gradientUnits="userSpaceOnUse">
<stop stop-color="#E1473D"/>
<stop offset="1" stop-color="#E9605A"/>
</linearGradient>
<linearGradient id="paint33_linear_21_461" x1="-613.535" y1="-318.095" x2="-595.788" y2="-306.51" gradientUnits="userSpaceOnUse">
<stop stop-color="#E1473D"/>
<stop offset="1" stop-color="#E9605A"/>
</linearGradient>
<linearGradient id="paint34_linear_21_461" x1="102.598" y1="117.052" x2="65.708" y2="146.434" gradientUnits="userSpaceOnUse">
<stop stop-color="#FEBBBA"/>
<stop offset="1" stop-color="#FF928E"/>
</linearGradient>
<linearGradient id="paint35_linear_21_461" x1="88.357" y1="107.386" x2="105.266" y2="129.156" gradientUnits="userSpaceOnUse">
<stop stop-color="#09005D"/>
<stop offset="1" stop-color="#1A0F91"/>
</linearGradient>
<linearGradient id="paint36_linear_21_461" x1="98.8853" y1="115.442" x2="80.7306" y2="129.333" gradientUnits="userSpaceOnUse">
<stop stop-color="#FEBBBA"/>
<stop offset="1" stop-color="#FF928E"/>
</linearGradient>
<linearGradient id="paint37_linear_21_461" x1="128.587" y1="171.142" x2="135.906" y2="171.142" gradientUnits="userSpaceOnUse">
<stop stop-color="#FEBBBA"/>
<stop offset="1" stop-color="#FF928E"/>
</linearGradient>
<linearGradient id="paint38_linear_21_461" x1="302.073" y1="1.55156" x2="263.807" y2="64.218" gradientUnits="userSpaceOnUse">
<stop stop-color="#FF928E"/>
<stop offset="1" stop-color="#FE7062"/>
</linearGradient>
<linearGradient id="paint39_linear_21_461" x1="192.595" y1="139.311" x2="198.881" y2="97.5315" gradientUnits="userSpaceOnUse">
<stop stop-color="#FEBBBA"/>
<stop offset="1" stop-color="#FF928E"/>
</linearGradient>
<linearGradient id="paint40_linear_21_461" x1="191.832" y1="113.4" x2="187.076" y2="141.387" gradientUnits="userSpaceOnUse">
<stop stop-color="#FEBBBA"/>
<stop offset="1" stop-color="#FF928E"/>
</linearGradient>
<linearGradient id="paint41_linear_21_461" x1="196.833" y1="126.647" x2="182.818" y2="111.758" gradientUnits="userSpaceOnUse">
<stop stop-color="#09005D"/>
<stop offset="1" stop-color="#1A0F91"/>
</linearGradient>
<linearGradient id="paint42_linear_21_461" x1="195.959" y1="143.948" x2="196.805" y2="124.295" gradientUnits="userSpaceOnUse">
<stop stop-color="#FEBBBA"/>
<stop offset="1" stop-color="#FF928E"/>
</linearGradient>
<linearGradient id="paint43_linear_21_461" x1="178.781" y1="391.403" x2="190.366" y2="352.704" gradientUnits="userSpaceOnUse">
<stop stop-color="#09005D"/>
<stop offset="1" stop-color="#1A0F91"/>
</linearGradient>
<linearGradient id="paint44_linear_21_461" x1="272.894" y1="724.174" x2="267.718" y2="690.899" gradientUnits="userSpaceOnUse">
<stop stop-color="#4F52FF"/>
<stop offset="1" stop-color="#4042E2"/>
</linearGradient>
<linearGradient id="paint45_linear_21_461" x1="214.999" y1="289.512" x2="209.006" y2="289.512" gradientUnits="userSpaceOnUse">
<stop stop-color="#FEBBBA"/>
<stop offset="1" stop-color="#FF928E"/>
</linearGradient>
<linearGradient id="paint46_linear_21_461" x1="223.542" y1="404.806" x2="235.127" y2="366.106" gradientUnits="userSpaceOnUse">
<stop stop-color="#09005D"/>
<stop offset="1" stop-color="#1A0F91"/>
</linearGradient>
<linearGradient id="paint47_linear_21_461" x1="319.231" y1="716.965" x2="314.054" y2="683.689" gradientUnits="userSpaceOnUse">
<stop stop-color="#4F52FF"/>
<stop offset="1" stop-color="#4042E2"/>
</linearGradient>
<linearGradient id="paint48_linear_21_461" x1="253.096" y1="284.516" x2="245.934" y2="284.516" gradientUnits="userSpaceOnUse">
<stop stop-color="#FEBBBA"/>
<stop offset="1" stop-color="#FF928E"/>
</linearGradient>
<linearGradient id="paint49_linear_21_461" x1="244.979" y1="318.34" x2="227.232" y2="271.261" gradientUnits="userSpaceOnUse">
<stop stop-color="#09005D"/>
<stop offset="1" stop-color="#1A0F91"/>
</linearGradient>
<linearGradient id="paint50_linear_21_461" x1="134.503" y1="129.252" x2="127.794" y2="138.717" gradientUnits="userSpaceOnUse">
<stop stop-color="#FEBBBA"/>
<stop offset="1" stop-color="#FF928E"/>
</linearGradient>
<linearGradient id="paint51_linear_21_461" x1="142.191" y1="123.998" x2="118.694" y2="157.15" gradientUnits="userSpaceOnUse">
<stop stop-color="#09005D"/>
<stop offset="1" stop-color="#1A0F91"/>
</linearGradient>
<linearGradient id="paint52_linear_21_461" x1="176.048" y1="109.357" x2="159.041" y2="119.217" gradientUnits="userSpaceOnUse">
<stop stop-color="#FF928E"/>
<stop offset="1" stop-color="#FE7062"/>
</linearGradient>
<linearGradient id="paint53_linear_21_461" x1="134.64" y1="124.719" x2="134.386" y2="126.378" gradientUnits="userSpaceOnUse">
<stop stop-color="#8D55D1"/>
<stop offset="0.9964" stop-color="#1C2873"/>
</linearGradient>
<linearGradient id="paint54_linear_21_461" x1="142.723" y1="127.439" x2="128.837" y2="147.03" gradientUnits="userSpaceOnUse">
<stop stop-color="#FEBBBA"/>
<stop offset="1" stop-color="#FF928E"/>
</linearGradient>
<linearGradient id="paint55_linear_21_461" x1="214.075" y1="192.882" x2="228.371" y2="158.127" gradientUnits="userSpaceOnUse">
<stop stop-color="#020039"/>
<stop offset="1" stop-color="#090056"/>
</linearGradient>
<linearGradient id="paint56_linear_21_461" x1="312.327" y1="7.81362" x2="274.062" y2="70.4798" gradientUnits="userSpaceOnUse">
<stop stop-color="#FF928E"/>
<stop offset="1" stop-color="#FE7062"/>
</linearGradient>
<linearGradient id="paint57_linear_21_461" x1="307.957" y1="5.14497" x2="269.691" y2="67.8115" gradientUnits="userSpaceOnUse">
<stop stop-color="#FF928E"/>
<stop offset="1" stop-color="#FE7062"/>
</linearGradient>
<linearGradient id="paint58_linear_21_461" x1="224.839" y1="175.636" x2="208.828" y2="206.425" gradientUnits="userSpaceOnUse">
<stop stop-color="#FEBBBA"/>
<stop offset="1" stop-color="#FF928E"/>
</linearGradient>
</defs>
</svg>
