<svg width="14" height="16" viewBox="0 0 14 16" fill="none" xmlns="http://www.w3.org/2000/svg">
<path d="M1 13C0.734784 13 0.48043 13.1054 0.292893 13.2929C0.105357 13.4804 0 13.7348 0 14C0 14.2652 0.105357 14.5196 0.292893 14.7071C0.48043 14.8946 0.734784 15 1 15H8.268C8.44354 15.304 8.69602 15.5565 9.00004 15.732C9.30407 15.9075 9.64894 15.9999 10 15.9999C10.3511 15.9999 10.6959 15.9075 11 15.732C11.304 15.5565 11.5565 15.304 11.732 15H13C13.2652 15 13.5196 14.8946 13.7071 14.7071C13.8946 14.5196 14 14.2652 14 14C14 13.7348 13.8946 13.4804 13.7071 13.2929C13.5196 13.1054 13.2652 13 13 13H11.732C11.5565 12.696 11.304 12.4435 11 12.268C10.6959 12.0925 10.3511 12.0001 10 12.0001C9.64894 12.0001 9.30407 12.0925 9.00004 12.268C8.69602 12.4435 8.44354 12.696 8.268 13H1ZM1 7C0.734784 7 0.48043 7.10535 0.292893 7.29289C0.105357 7.48043 0 7.73478 0 8C0 8.26521 0.105357 8.51957 0.292893 8.7071C0.48043 8.89464 0.734784 9 1 9H2.268C2.44354 9.30401 2.69602 9.55646 3.00004 9.73198C3.30407 9.9075 3.64894 9.99991 4 9.99991C4.35106 9.99991 4.69593 9.9075 4.99996 9.73198C5.30398 9.55646 5.55646 9.30401 5.732 9H13C13.2652 9 13.5196 8.89464 13.7071 8.7071C13.8946 8.51957 14 8.26521 14 8C14 7.73478 13.8946 7.48043 13.7071 7.29289C13.5196 7.10535 13.2652 7 13 7H5.732C5.55646 6.69598 5.30398 6.44353 4.99996 6.26801C4.69593 6.09249 4.35106 6.00008 4 6.00008C3.64894 6.00008 3.30407 6.09249 3.00004 6.26801C2.69602 6.44353 2.44354 6.69598 2.268 7H1ZM0 2C0 1.73478 0.105357 1.48042 0.292893 1.29289C0.48043 1.10535 0.734784 0.999996 1 0.999996H8.268C8.44354 0.695982 8.69602 0.443527 9.00004 0.268007C9.30407 0.0924873 9.64894 8.39233e-05 10 8.39233e-05C10.3511 8.39233e-05 10.6959 0.0924873 11 0.268007C11.304 0.443527 11.5565 0.695982 11.732 0.999996H13C13.2652 0.999996 13.5196 1.10535 13.7071 1.29289C13.8946 1.48042 14 1.73478 14 2C14 2.26521 13.8946 2.51957 13.7071 2.7071C13.5196 2.89464 13.2652 3 13 3H11.732C11.5565 3.30401 11.304 3.55646 11 3.73198C10.6959 3.9075 10.3511 3.99991 10 3.99991C9.64894 3.99991 9.30407 3.9075 9.00004 3.73198C8.69602 3.55646 8.44354 3.30401 8.268 3H1C0.734784 3 0.48043 2.89464 0.292893 2.7071C0.105357 2.51957 0 2.26521 0 2Z" fill="white"/>
</svg>
