<svg width="1296" height="1296" viewBox="0 0 1296 1296" fill="none" xmlns="http://www.w3.org/2000/svg">
<g clip-path="url(#clip0_175_638)">
<path d="M348 164.5L998 164.5C1003.25 164.5 1007.5 168.753 1007.5 174V184C1007.5 189.247 1003.25 193.5 998 193.5L338.5 193.5V174C338.5 168.753 342.753 164.5 348 164.5Z" fill="white" stroke="#C8C8C8"/>
<mask id="path-2-outside-1_175_638" maskUnits="userSpaceOnUse" x="338" y="193" width="32" height="1007" fill="black">
<rect fill="white" x="338" y="193" width="32" height="1007"/>
<path d="M339 1199L339 193H369L369 1189C369 1194.52 364.523 1199 359 1199H339Z"/>
</mask>
<path d="M339 1199L339 193H369L369 1189C369 1194.52 364.523 1199 359 1199H339Z" fill="white"/>
<path d="M338 1200L338 193H340L340 1198L338 1200ZM370 193L370 1189C370 1195.08 365.075 1200 359 1200V1198C363.971 1198 368 1193.97 368 1189L368 193H370ZM370 1189C370 1195.08 365.075 1200 359 1200H338L340 1198H359C363.971 1198 368 1193.97 368 1189H370ZM339 193H369H339Z" fill="#C8C8C8" mask="url(#path-2-outside-1_175_638)"/>
<path d="M203.5 1190L203.5 1074C203.5 1068.75 207.753 1064.5 213 1064.5H223C228.247 1064.5 232.5 1068.75 232.5 1074V1199.5H213C207.753 1199.5 203.5 1195.25 203.5 1190Z" fill="white" stroke="#C8C8C8"/>
<mask id="path-5-outside-2_175_638" maskUnits="userSpaceOnUse" x="369" y="1095" width="716" height="32" fill="black">
<rect fill="white" x="369" y="1095" width="716" height="32"/>
<path d="M369 1096H1074C1079.52 1096 1084 1100.48 1084 1106V1116C1084 1121.52 1079.52 1126 1074 1126H369V1096Z"/>
</mask>
<path d="M369 1096H1074C1079.52 1096 1084 1100.48 1084 1106V1116C1084 1121.52 1079.52 1126 1074 1126H369V1096Z" fill="white"/>
<path d="M369 1095H1074C1080.08 1095 1085 1099.92 1085 1106H1083C1083 1101.03 1078.97 1097 1074 1097H369V1095ZM1085 1116C1085 1122.08 1080.08 1127 1074 1127H369V1125H1074C1078.97 1125 1083 1120.97 1083 1116H1085ZM369 1126V1096V1126ZM1074 1095C1080.08 1095 1085 1099.92 1085 1106V1116C1085 1122.08 1080.08 1127 1074 1127V1125C1078.97 1125 1083 1120.97 1083 1116V1106C1083 1101.03 1078.97 1097 1074 1097V1095Z" fill="#C8C8C8" mask="url(#path-5-outside-2_175_638)"/>
<mask id="path-7-inside-3_175_638" fill="white">
<path d="M232 1170H339V1200H232V1170Z"/>
</mask>
<path d="M232 1170H339V1200H232V1170Z" fill="white"/>
<path d="M232 1171H339V1169H232V1171ZM339 1199H232V1201H339V1199Z" fill="#C8C8C8" mask="url(#path-7-inside-3_175_638)"/>
<mask id="path-9-inside-4_175_638" fill="white">
<path d="M505 1096L505 193H520L520 1096H505Z"/>
</mask>
<path d="M505 1096L505 193H520L520 1096H505Z" fill="white"/>
<path d="M506 1096L506 193H504L504 1096H506ZM519 193L519 1096H521L521 193H519Z" fill="#C8C8C8" mask="url(#path-9-inside-4_175_638)"/>
<mask id="path-11-inside-5_175_638" fill="white">
<path d="M465 165V33.5C465 29.3579 468.358 26 472.5 26V26C476.642 26 480 29.3579 480 33.5V165H465Z"/>
</mask>
<path d="M465 165V33.5C465 29.3579 468.358 26 472.5 26V26C476.642 26 480 29.3579 480 33.5V165H465Z" fill="white"/>
<path d="M464 165V33.5C464 28.8056 467.806 25 472.5 25V27C468.91 27 466 29.9101 466 33.5V165H464ZM472.5 25C477.194 25 481 28.8056 481 33.5V165H479V33.5C479 29.9101 476.09 27 472.5 27V25ZM480 165H465H480ZM464 33.5C464 28.8056 467.806 25 472.5 25C477.194 25 481 28.8056 481 33.5H479C479 29.9101 476.09 27 472.5 27C468.91 27 466 29.9101 466 33.5H464Z" fill="#C8C8C8" mask="url(#path-11-inside-5_175_638)"/>
<mask id="path-13-inside-6_175_638" fill="white">
<path d="M472.5 1272C468.358 1272 465 1268.64 465 1264.5V1126H480V1264.5C480 1268.64 476.642 1272 472.5 1272V1272Z"/>
</mask>
<path d="M472.5 1272C468.358 1272 465 1268.64 465 1264.5V1126H480V1264.5C480 1268.64 476.642 1272 472.5 1272V1272Z" fill="white"/>
<path d="M472.5 1273C467.806 1273 464 1269.19 464 1264.5V1126H466V1264.5C466 1268.09 468.91 1271 472.5 1271V1273ZM481 1126V1264.5C481 1269.19 477.194 1273 472.5 1273V1271C476.09 1271 479 1268.09 479 1264.5V1126H481ZM481 1264.5C481 1269.19 477.194 1273 472.5 1273C467.806 1273 464 1269.19 464 1264.5H466C466 1268.09 468.91 1271 472.5 1271C476.09 1271 479 1268.09 479 1264.5H481ZM465 1126H480H465Z" fill="#C8C8C8" mask="url(#path-13-inside-6_175_638)"/>
<mask id="path-15-inside-7_175_638" fill="white">
<path d="M780 1096L780 193H795L795 1096H780Z"/>
</mask>
<path d="M780 1096L780 193H795L795 1096H780Z" fill="white"/>
<path d="M781 1096L781 193H779L779 1096H781ZM794 193L794 1096H796L796 193H794Z" fill="#C8C8C8" mask="url(#path-15-inside-7_175_638)"/>
<mask id="path-17-inside-8_175_638" fill="white">
<path d="M794 733V718H934.5C938.642 718 942 721.358 942 725.5V725.5C942 729.642 938.642 733 934.5 733H794Z"/>
</mask>
<path d="M794 733V718H934.5C938.642 718 942 721.358 942 725.5V725.5C942 729.642 938.642 733 934.5 733H794Z" fill="white"/>
<path d="M794 733V718V733ZM934.5 717C939.194 717 943 720.806 943 725.5C943 730.194 939.194 734 934.5 734V732C938.09 732 941 729.09 941 725.5C941 721.91 938.09 719 934.5 719V717ZM943 725.5C943 730.194 939.194 734 934.5 734H794V732H934.5C938.09 732 941 729.09 941 725.5H943ZM794 717H934.5C939.194 717 943 720.806 943 725.5H941C941 721.91 938.09 719 934.5 719H794V717Z" fill="#C8C8C8" mask="url(#path-17-inside-8_175_638)"/>
<mask id="path-19-inside-9_175_638" fill="white">
<path d="M794 526V511H934.5C938.642 511 942 514.358 942 518.5V518.5C942 522.642 938.642 526 934.5 526H794Z"/>
</mask>
<path d="M794 526V511H934.5C938.642 511 942 514.358 942 518.5V518.5C942 522.642 938.642 526 934.5 526H794Z" fill="white"/>
<path d="M794 526V511V526ZM934.5 510C939.194 510 943 513.806 943 518.5C943 523.194 939.194 527 934.5 527V525C938.09 525 941 522.09 941 518.5C941 514.91 938.09 512 934.5 512V510ZM943 518.5C943 523.194 939.194 527 934.5 527H794V525H934.5C938.09 525 941 522.09 941 518.5H943ZM794 510H934.5C939.194 510 943 513.806 943 518.5H941C941 514.91 938.09 512 934.5 512H794V510Z" fill="#C8C8C8" mask="url(#path-19-inside-9_175_638)"/>
<mask id="path-21-inside-10_175_638" fill="white">
<path d="M369 508V493H506V508H369Z"/>
</mask>
<path d="M369 508V493H506V508H369Z" fill="white"/>
<path d="M369 494H506V492H369V494ZM506 507H369V509H506V507Z" fill="#C8C8C8" mask="url(#path-21-inside-10_175_638)"/>
<mask id="path-23-inside-11_175_638" fill="white">
<path d="M369 801V786H506V801H369Z"/>
</mask>
<path d="M369 801V786H506V801H369Z" fill="white"/>
<path d="M369 787H506V785H369V787ZM506 800H369V802H506V800Z" fill="#C8C8C8" mask="url(#path-23-inside-11_175_638)"/>
<mask id="path-25-inside-12_175_638" fill="white">
<path d="M519 594V579H781V594H519Z"/>
</mask>
<path d="M519 594V579H781V594H519Z" fill="white"/>
<path d="M519 580H781V578H519V580ZM781 593H519V595H781V593Z" fill="#C8C8C8" mask="url(#path-25-inside-12_175_638)"/>
<mask id="path-27-inside-13_175_638" fill="white">
<path d="M519 712V697H781V712H519Z"/>
</mask>
<path d="M519 712V697H781V712H519Z" fill="white"/>
<path d="M519 698H781V696H519V698ZM781 711H519V713H781V711Z" fill="#C8C8C8" mask="url(#path-27-inside-13_175_638)"/>
<mask id="path-29-inside-14_175_638" fill="white">
<path d="M519 911V896H781V911H519Z"/>
</mask>
<path d="M519 911V896H781V911H519Z" fill="white"/>
<path d="M519 897H781V895H519V897ZM781 910H519V912H781V910Z" fill="#C8C8C8" mask="url(#path-29-inside-14_175_638)"/>
<mask id="path-31-inside-15_175_638" fill="white">
<path d="M519 395V380L781 380V395L519 395Z"/>
</mask>
<path d="M519 395V380L781 380V395L519 395Z" fill="white"/>
<path d="M519 381L781 381V379L519 379V381ZM781 394L519 394V396L781 396V394Z" fill="#C8C8C8" mask="url(#path-31-inside-15_175_638)"/>
<path d="M260 1177.25C261.1 1177.25 262 1176.35 262 1175.25C262 1174.15 261.1 1173.25 260 1173.25C258.9 1173.25 258 1174.15 258 1175.25C258 1176.35 258.9 1177.25 260 1177.25ZM256.3 1180.65L253.5 1194.75H255.6L257.4 1186.75L259.5 1188.75V1194.75H261.5V1187.25L259.4 1185.25L260 1182.25C261.3 1183.75 263.3 1184.75 265.5 1184.75V1182.75C263.6 1182.75 262 1181.75 261.2 1180.35L260.2 1178.75C259.64 1177.86 258.52 1177.5 257.55 1177.91L252.5 1180.05V1184.75H254.5V1181.35L256.3 1180.65Z" fill="#6C757D"/>
<path d="M280.451 1186.83V1188H275.922V1186.83H280.451ZM276.338 1179.47V1188H274.867V1179.47H276.338ZM279.859 1183.03V1184.18H275.922V1183.03H279.859ZM280.422 1179.47V1180.64H275.922V1179.47H280.422ZM282.912 1183.01V1188H281.5V1181.66H282.83L282.912 1183.01ZM282.66 1184.6L282.203 1184.59C282.207 1184.14 282.27 1183.73 282.391 1183.35C282.516 1182.98 282.688 1182.66 282.906 1182.39C283.129 1182.12 283.395 1181.91 283.703 1181.77C284.012 1181.62 284.355 1181.54 284.734 1181.54C285.039 1181.54 285.314 1181.59 285.561 1181.67C285.811 1181.75 286.023 1181.89 286.199 1182.08C286.379 1182.26 286.516 1182.51 286.609 1182.81C286.703 1183.11 286.75 1183.47 286.75 1183.9V1188H285.332V1183.9C285.332 1183.59 285.287 1183.35 285.197 1183.18C285.111 1183 284.984 1182.87 284.816 1182.8C284.652 1182.72 284.447 1182.68 284.201 1182.68C283.959 1182.68 283.742 1182.73 283.551 1182.83C283.359 1182.93 283.197 1183.07 283.064 1183.25C282.936 1183.42 282.836 1183.63 282.766 1183.86C282.695 1184.09 282.66 1184.33 282.66 1184.6ZM291.098 1181.66V1182.69H287.523V1181.66H291.098ZM288.555 1180.11H289.967V1186.25C289.967 1186.44 289.994 1186.59 290.049 1186.7C290.107 1186.8 290.188 1186.87 290.289 1186.9C290.391 1186.94 290.51 1186.96 290.646 1186.96C290.744 1186.96 290.838 1186.95 290.928 1186.94C291.018 1186.93 291.09 1186.92 291.145 1186.9L291.15 1187.98C291.033 1188.02 290.896 1188.05 290.74 1188.08C290.588 1188.1 290.412 1188.12 290.213 1188.12C289.889 1188.12 289.602 1188.06 289.352 1187.95C289.102 1187.83 288.906 1187.64 288.766 1187.38C288.625 1187.12 288.555 1186.77 288.555 1186.34V1180.11ZM293.605 1182.87V1188H292.193V1181.66H293.541L293.605 1182.87ZM295.545 1181.62L295.533 1182.93C295.447 1182.92 295.354 1182.9 295.252 1182.9C295.154 1182.89 295.057 1182.88 294.959 1182.88C294.717 1182.88 294.504 1182.92 294.32 1182.99C294.137 1183.06 293.982 1183.15 293.857 1183.28C293.736 1183.41 293.643 1183.56 293.576 1183.74C293.51 1183.92 293.471 1184.12 293.459 1184.34L293.137 1184.37C293.137 1183.97 293.176 1183.6 293.254 1183.26C293.332 1182.92 293.449 1182.62 293.605 1182.36C293.766 1182.11 293.965 1181.9 294.203 1181.76C294.445 1181.62 294.725 1181.54 295.041 1181.54C295.127 1181.54 295.219 1181.55 295.316 1181.57C295.418 1181.58 295.494 1181.6 295.545 1181.62ZM299.793 1186.73V1183.71C299.793 1183.48 299.752 1183.28 299.67 1183.12C299.588 1182.96 299.463 1182.83 299.295 1182.74C299.131 1182.65 298.924 1182.6 298.674 1182.6C298.443 1182.6 298.244 1182.64 298.076 1182.72C297.908 1182.8 297.777 1182.9 297.684 1183.04C297.59 1183.17 297.543 1183.32 297.543 1183.49H296.137C296.137 1183.24 296.197 1183 296.318 1182.76C296.439 1182.53 296.615 1182.32 296.846 1182.13C297.076 1181.95 297.352 1181.81 297.672 1181.7C297.992 1181.6 298.352 1181.54 298.75 1181.54C299.227 1181.54 299.648 1181.62 300.016 1181.78C300.387 1181.94 300.678 1182.19 300.889 1182.51C301.104 1182.83 301.211 1183.23 301.211 1183.72V1186.54C301.211 1186.82 301.23 1187.08 301.27 1187.31C301.312 1187.54 301.373 1187.74 301.451 1187.91V1188H300.004C299.938 1187.85 299.885 1187.65 299.846 1187.42C299.811 1187.18 299.793 1186.95 299.793 1186.73ZM299.998 1184.14L300.01 1185.02H298.996C298.734 1185.02 298.504 1185.04 298.305 1185.09C298.105 1185.14 297.939 1185.21 297.807 1185.3C297.674 1185.4 297.574 1185.51 297.508 1185.64C297.441 1185.78 297.408 1185.93 297.408 1186.1C297.408 1186.26 297.447 1186.42 297.525 1186.56C297.604 1186.7 297.717 1186.8 297.865 1186.88C298.018 1186.96 298.201 1187 298.416 1187C298.705 1187 298.957 1186.94 299.172 1186.82C299.391 1186.7 299.562 1186.55 299.688 1186.38C299.812 1186.21 299.879 1186.04 299.887 1185.88L300.344 1186.51C300.297 1186.67 300.217 1186.84 300.104 1187.03C299.99 1187.21 299.842 1187.39 299.658 1187.55C299.479 1187.72 299.262 1187.85 299.008 1187.96C298.758 1188.06 298.469 1188.12 298.141 1188.12C297.727 1188.12 297.357 1188.04 297.033 1187.87C296.709 1187.7 296.455 1187.48 296.271 1187.2C296.088 1186.91 295.996 1186.59 295.996 1186.23C295.996 1185.89 296.059 1185.6 296.184 1185.34C296.312 1185.08 296.5 1184.86 296.746 1184.68C296.996 1184.51 297.301 1184.38 297.66 1184.29C298.02 1184.19 298.43 1184.14 298.891 1184.14H299.998ZM304.088 1183.01V1188H302.676V1181.66H304.006L304.088 1183.01ZM303.836 1184.6L303.379 1184.59C303.383 1184.14 303.445 1183.73 303.566 1183.35C303.691 1182.98 303.863 1182.66 304.082 1182.39C304.305 1182.12 304.57 1181.91 304.879 1181.77C305.188 1181.62 305.531 1181.54 305.91 1181.54C306.215 1181.54 306.49 1181.59 306.736 1181.67C306.986 1181.75 307.199 1181.89 307.375 1182.08C307.555 1182.26 307.691 1182.51 307.785 1182.81C307.879 1183.11 307.926 1183.47 307.926 1183.9V1188H306.508V1183.9C306.508 1183.59 306.463 1183.35 306.373 1183.18C306.287 1183 306.16 1182.87 305.992 1182.8C305.828 1182.72 305.623 1182.68 305.377 1182.68C305.135 1182.68 304.918 1182.73 304.727 1182.83C304.535 1182.93 304.373 1183.07 304.24 1183.25C304.111 1183.42 304.012 1183.63 303.941 1183.86C303.871 1184.09 303.836 1184.33 303.836 1184.6ZM311.957 1186.99C312.188 1186.99 312.395 1186.95 312.578 1186.86C312.766 1186.76 312.916 1186.63 313.029 1186.47C313.146 1186.31 313.211 1186.12 313.223 1185.9H314.553C314.545 1186.31 314.424 1186.69 314.189 1187.02C313.955 1187.36 313.645 1187.62 313.258 1187.82C312.871 1188.02 312.443 1188.12 311.975 1188.12C311.49 1188.12 311.068 1188.04 310.709 1187.87C310.35 1187.7 310.051 1187.47 309.812 1187.18C309.574 1186.89 309.395 1186.55 309.273 1186.17C309.156 1185.78 309.098 1185.37 309.098 1184.94V1184.73C309.098 1184.29 309.156 1183.88 309.273 1183.5C309.395 1183.11 309.574 1182.77 309.812 1182.48C310.051 1182.19 310.35 1181.96 310.709 1181.79C311.068 1181.63 311.488 1181.54 311.969 1181.54C312.477 1181.54 312.922 1181.64 313.305 1181.85C313.688 1182.05 313.988 1182.33 314.207 1182.69C314.43 1183.04 314.545 1183.46 314.553 1183.93H313.223C313.211 1183.69 313.152 1183.48 313.047 1183.29C312.945 1183.1 312.801 1182.95 312.613 1182.84C312.43 1182.72 312.209 1182.67 311.951 1182.67C311.666 1182.67 311.43 1182.73 311.242 1182.84C311.055 1182.96 310.908 1183.11 310.803 1183.31C310.697 1183.51 310.621 1183.73 310.574 1183.97C310.531 1184.22 310.51 1184.47 310.51 1184.73V1184.94C310.51 1185.2 310.531 1185.45 310.574 1185.7C310.617 1185.94 310.691 1186.16 310.797 1186.36C310.906 1186.55 311.055 1186.71 311.242 1186.82C311.43 1186.94 311.668 1186.99 311.957 1186.99ZM318.432 1188.12C317.963 1188.12 317.539 1188.04 317.16 1187.89C316.785 1187.73 316.465 1187.52 316.199 1187.24C315.938 1186.96 315.736 1186.63 315.596 1186.26C315.455 1185.88 315.385 1185.48 315.385 1185.05V1184.81C315.385 1184.32 315.457 1183.87 315.602 1183.46C315.746 1183.06 315.947 1182.72 316.205 1182.43C316.463 1182.14 316.768 1181.92 317.119 1181.77C317.471 1181.62 317.852 1181.54 318.262 1181.54C318.715 1181.54 319.111 1181.62 319.451 1181.77C319.791 1181.92 320.072 1182.14 320.295 1182.42C320.521 1182.69 320.689 1183.02 320.799 1183.39C320.912 1183.77 320.969 1184.19 320.969 1184.65V1185.25H316.07V1184.24H319.574V1184.13C319.566 1183.87 319.516 1183.63 319.422 1183.41C319.332 1183.19 319.193 1183.01 319.006 1182.87C318.818 1182.74 318.568 1182.67 318.256 1182.67C318.021 1182.67 317.812 1182.72 317.629 1182.82C317.449 1182.92 317.299 1183.06 317.178 1183.25C317.057 1183.44 316.963 1183.66 316.896 1183.93C316.834 1184.19 316.803 1184.48 316.803 1184.81V1185.05C316.803 1185.32 316.84 1185.58 316.914 1185.82C316.992 1186.05 317.105 1186.26 317.254 1186.44C317.402 1186.61 317.582 1186.75 317.793 1186.85C318.004 1186.95 318.244 1187 318.514 1187C318.854 1187 319.156 1186.93 319.422 1186.79C319.688 1186.66 319.918 1186.46 320.113 1186.21L320.857 1186.93C320.721 1187.13 320.543 1187.32 320.324 1187.51C320.105 1187.69 319.838 1187.83 319.521 1187.95C319.209 1188.06 318.846 1188.12 318.432 1188.12Z" fill="#6C757D"/>
<path d="M351 1155.01V1148H349V1155.01H346L350 1159L354 1155.01H351ZM352 1160.99H355V1168H357V1160.99H360L356 1157L352 1160.99Z" fill="#6C757D"/>
<path d="M351 931.01V924H349V931.01H346L350 935L354 931.01H351ZM352 936.99H355V944H357V936.99H360L356 933L352 936.99Z" fill="#6C757D"/>
<path d="M351 632.01V625H349V632.01H346L350 636L354 632.01H351ZM352 637.99H355V645H357V637.99H360L356 634L352 637.99Z" fill="#6C757D"/>
<path d="M351 333.01V326H349V333.01H346L350 337L354 333.01H351ZM352 338.99H355V346H357V338.99H360L356 335L352 338.99Z" fill="#6C757D"/>
<path d="M431.01 1113H424V1115H431.01V1118L435 1114L431.01 1110V1113ZM436.99 1112V1109H444V1107H436.99V1104L433 1108L436.99 1112Z" fill="#6C757D"/>
<path d="M433.01 181H426V183H433.01V186L437 182L433.01 178V181ZM438.99 180V177H446V175H438.99V172L435 176L438.99 180Z" fill="#6C757D"/>
<path d="M645.01 181H638V183H645.01V186L649 182L645.01 178V181ZM650.99 180V177H658V175H650.99V172L647 176L650.99 180Z" fill="#6C757D"/>
<path d="M863.01 181H856V183H863.01V186L867 182L863.01 178V181ZM868.99 180V177H876V175H868.99V172L865 176L868.99 180Z" fill="#6C757D"/>
<path d="M646.01 1113H639V1115H646.01V1118L650 1114L646.01 1110V1113ZM651.99 1112V1109H659V1107H651.99V1104L648 1108L651.99 1112Z" fill="#6C757D"/>
<path d="M888.01 1113H881V1115H888.01V1118L892 1114L888.01 1110V1113ZM893.99 1112V1109H901V1107H893.99V1104L890 1108L893.99 1112Z" fill="#6C757D"/>
</g>
<defs>
<clipPath id="clip0_175_638">
<rect width="1296" height="1296" fill="white"/>
</clipPath>
</defs>
</svg>
