<svg width="432" height="432" viewBox="0 0 432 432" fill="none" xmlns="http://www.w3.org/2000/svg">
<g clip-path="url(#clip0_175_638)">
<path d="M-84 164.5L566 164.5C571.247 164.5 575.5 168.753 575.5 174V184C575.5 189.247 571.247 193.5 566 193.5L-93.5 193.5V174C-93.5 168.753 -89.2467 164.5 -84 164.5Z" fill="white" stroke="#C8C8C8"/>
<mask id="path-2-inside-1_175_638" fill="white">
<path d="M73 1096L73 193H88L88 1096H73Z"/>
</mask>
<path d="M73 1096L73 193H88L88 1096H73Z" fill="white"/>
<path d="M74 1096L74 193H72L72 1096H74ZM87 193L87 1096H89L89 193H87Z" fill="#C8C8C8" mask="url(#path-2-inside-1_175_638)"/>
<mask id="path-4-inside-2_175_638" fill="white">
<path d="M33 165L33 33.5C33 29.3579 36.3579 26 40.5 26V26C44.6421 26 48 29.3579 48 33.5L48 165H33Z"/>
</mask>
<path d="M33 165L33 33.5C33 29.3579 36.3579 26 40.5 26V26C44.6421 26 48 29.3579 48 33.5L48 165H33Z" fill="white"/>
<path d="M32 165L32 33.5C32 28.8056 35.8056 25 40.5 25V27C36.9101 27 34 29.9101 34 33.5L34 165H32ZM40.5 25C45.1944 25 49 28.8056 49 33.5L49 165H47L47 33.5C47 29.9101 44.0899 27 40.5 27V25ZM48 165H33H48ZM32 33.5C32 28.8056 35.8056 25 40.5 25C45.1944 25 49 28.8056 49 33.5H47C47 29.9101 44.0899 27 40.5 27C36.9101 27 34 29.9101 34 33.5H32Z" fill="#C8C8C8" mask="url(#path-4-inside-2_175_638)"/>
<mask id="path-6-inside-3_175_638" fill="white">
<path d="M348 1096L348 193H363L363 1096H348Z"/>
</mask>
<path d="M348 1096L348 193H363L363 1096H348Z" fill="white"/>
<path d="M349 1096L349 193H347L347 1096H349ZM362 193L362 1096H364L364 193H362Z" fill="#C8C8C8" mask="url(#path-6-inside-3_175_638)"/>
<mask id="path-8-inside-4_175_638" fill="white">
<path d="M87 395V380L349 380V395L87 395Z"/>
</mask>
<path d="M87 395V380L349 380V395L87 395Z" fill="white"/>
<path d="M87 381L349 381V379L87 379V381ZM349 394L87 394V396L349 396V394Z" fill="#C8C8C8" mask="url(#path-8-inside-4_175_638)"/>
<path d="M1.01 181H-6V183H1.01V186L5 182L1.01 178V181ZM6.99 180V177H14V175H6.99V172L3 176L6.99 180Z" fill="#6C757D"/>
<path d="M213.01 181H206V183H213.01V186L217 182L213.01 178V181ZM218.99 180V177H226V175H218.99V172L215 176L218.99 180Z" fill="#6C757D"/>
<path d="M431.01 181H424V183H431.01V186L435 182L431.01 178V181ZM436.99 180V177H444V175H436.99V172L433 176L436.99 180Z" fill="#6C757D"/>
</g>
<defs>
<clipPath id="clip0_175_638">
<rect width="1296" height="1296" fill="white" transform="translate(-432)"/>
</clipPath>
</defs>
</svg>
