<svg width="432" height="432" viewBox="0 0 432 432" fill="none" xmlns="http://www.w3.org/2000/svg">
<g clip-path="url(#clip0_175_638)">
<mask id="path-1-outside-1_175_638" maskUnits="userSpaceOnUse" x="338" y="-671" width="32" height="1007" fill="black">
<rect fill="white" x="338" y="-671" width="32" height="1007"/>
<path d="M339 335L339 -671H369L369 325C369 330.523 364.523 335 359 335H339Z"/>
</mask>
<path d="M339 335L339 -671H369L369 325C369 330.523 364.523 335 359 335H339Z" fill="white"/>
<path d="M338 336L338 -671H340L340 334L338 336ZM370 -671L370 325C370 331.075 365.075 336 359 336V334C363.971 334 368 329.971 368 325L368 -671H370ZM370 325C370 331.075 365.075 336 359 336H338L340 334H359C363.971 334 368 329.971 368 325H370ZM339 -671H369H339Z" fill="#C8C8C8" mask="url(#path-1-outside-1_175_638)"/>
<path d="M203.5 326L203.5 210C203.5 204.753 207.753 200.5 213 200.5H223C228.247 200.5 232.5 204.753 232.5 210V335.5H213C207.753 335.5 203.5 331.247 203.5 326Z" fill="white" stroke="#C8C8C8"/>
<mask id="path-4-outside-2_175_638" maskUnits="userSpaceOnUse" x="369" y="231" width="716" height="32" fill="black">
<rect fill="white" x="369" y="231" width="716" height="32"/>
<path d="M369 232L1074 232C1079.52 232 1084 236.477 1084 242V252C1084 257.523 1079.52 262 1074 262L369 262V232Z"/>
</mask>
<path d="M369 232L1074 232C1079.52 232 1084 236.477 1084 242V252C1084 257.523 1079.52 262 1074 262L369 262V232Z" fill="white"/>
<path d="M369 231L1074 231C1080.08 231 1085 235.925 1085 242H1083C1083 237.029 1078.97 233 1074 233L369 233V231ZM1085 252C1085 258.075 1080.08 263 1074 263L369 263V261L1074 261C1078.97 261 1083 256.971 1083 252H1085ZM369 262V232V262ZM1074 231C1080.08 231 1085 235.925 1085 242V252C1085 258.075 1080.08 263 1074 263V261C1078.97 261 1083 256.971 1083 252V242C1083 237.029 1078.97 233 1074 233V231Z" fill="#C8C8C8" mask="url(#path-4-outside-2_175_638)"/>
<mask id="path-6-inside-3_175_638" fill="white">
<path d="M232 306H339V336H232V306Z"/>
</mask>
<path d="M232 306H339V336H232V306Z" fill="white"/>
<path d="M232 307H339V305H232V307ZM339 335H232V337H339V335Z" fill="#C8C8C8" mask="url(#path-6-inside-3_175_638)"/>
<path d="M260 313.25C261.1 313.25 262 312.35 262 311.25C262 310.15 261.1 309.25 260 309.25C258.9 309.25 258 310.15 258 311.25C258 312.35 258.9 313.25 260 313.25ZM256.3 316.65L253.5 330.75H255.6L257.4 322.75L259.5 324.75V330.75H261.5V323.25L259.4 321.25L260 318.25C261.3 319.75 263.3 320.75 265.5 320.75V318.75C263.6 318.75 262 317.75 261.2 316.35L260.2 314.75C259.64 313.86 258.52 313.5 257.55 313.91L252.5 316.05V320.75H254.5V317.35L256.3 316.65Z" fill="#6C757D"/>
<path d="M280.451 322.834V324H275.922V322.834H280.451ZM276.338 315.469V324H274.867V315.469H276.338ZM279.859 319.031V320.18H275.922V319.031H279.859ZM280.422 315.469V316.641H275.922V315.469H280.422ZM282.912 319.014V324H281.5V317.66H282.83L282.912 319.014ZM282.66 320.596L282.203 320.59C282.207 320.141 282.27 319.729 282.391 319.354C282.516 318.979 282.688 318.656 282.906 318.387C283.129 318.117 283.395 317.91 283.703 317.766C284.012 317.617 284.355 317.543 284.734 317.543C285.039 317.543 285.314 317.586 285.561 317.672C285.811 317.754 286.023 317.889 286.199 318.076C286.379 318.264 286.516 318.508 286.609 318.809C286.703 319.105 286.75 319.471 286.75 319.904V324H285.332V319.898C285.332 319.594 285.287 319.354 285.197 319.178C285.111 318.998 284.984 318.871 284.816 318.797C284.652 318.719 284.447 318.68 284.201 318.68C283.959 318.68 283.742 318.73 283.551 318.832C283.359 318.934 283.197 319.072 283.064 319.248C282.936 319.424 282.836 319.627 282.766 319.857C282.695 320.088 282.66 320.334 282.66 320.596ZM291.098 317.66V318.691H287.523V317.66H291.098ZM288.555 316.107H289.967V322.248C289.967 322.443 289.994 322.594 290.049 322.699C290.107 322.801 290.188 322.869 290.289 322.904C290.391 322.939 290.51 322.957 290.646 322.957C290.744 322.957 290.838 322.951 290.928 322.939C291.018 322.928 291.09 322.916 291.145 322.904L291.15 323.982C291.033 324.018 290.896 324.049 290.74 324.076C290.588 324.104 290.412 324.117 290.213 324.117C289.889 324.117 289.602 324.061 289.352 323.947C289.102 323.83 288.906 323.641 288.766 323.379C288.625 323.117 288.555 322.77 288.555 322.336V316.107ZM293.605 318.867V324H292.193V317.66H293.541L293.605 318.867ZM295.545 317.619L295.533 318.932C295.447 318.916 295.354 318.904 295.252 318.896C295.154 318.889 295.057 318.885 294.959 318.885C294.717 318.885 294.504 318.92 294.32 318.99C294.137 319.057 293.982 319.154 293.857 319.283C293.736 319.408 293.643 319.561 293.576 319.74C293.51 319.92 293.471 320.121 293.459 320.344L293.137 320.367C293.137 319.969 293.176 319.6 293.254 319.26C293.332 318.92 293.449 318.621 293.605 318.363C293.766 318.105 293.965 317.904 294.203 317.76C294.445 317.615 294.725 317.543 295.041 317.543C295.127 317.543 295.219 317.551 295.316 317.566C295.418 317.582 295.494 317.6 295.545 317.619ZM299.793 322.729V319.705C299.793 319.479 299.752 319.283 299.67 319.119C299.588 318.955 299.463 318.828 299.295 318.738C299.131 318.648 298.924 318.604 298.674 318.604C298.443 318.604 298.244 318.643 298.076 318.721C297.908 318.799 297.777 318.904 297.684 319.037C297.59 319.17 297.543 319.32 297.543 319.488H296.137C296.137 319.238 296.197 318.996 296.318 318.762C296.439 318.527 296.615 318.318 296.846 318.135C297.076 317.951 297.352 317.807 297.672 317.701C297.992 317.596 298.352 317.543 298.75 317.543C299.227 317.543 299.648 317.623 300.016 317.783C300.387 317.943 300.678 318.186 300.889 318.51C301.104 318.83 301.211 319.232 301.211 319.717V322.535C301.211 322.824 301.23 323.084 301.27 323.314C301.312 323.541 301.373 323.738 301.451 323.906V324H300.004C299.938 323.848 299.885 323.654 299.846 323.42C299.811 323.182 299.793 322.951 299.793 322.729ZM299.998 320.145L300.01 321.018H298.996C298.734 321.018 298.504 321.043 298.305 321.094C298.105 321.141 297.939 321.211 297.807 321.305C297.674 321.398 297.574 321.512 297.508 321.645C297.441 321.777 297.408 321.928 297.408 322.096C297.408 322.264 297.447 322.418 297.525 322.559C297.604 322.695 297.717 322.803 297.865 322.881C298.018 322.959 298.201 322.998 298.416 322.998C298.705 322.998 298.957 322.939 299.172 322.822C299.391 322.701 299.562 322.555 299.688 322.383C299.812 322.207 299.879 322.041 299.887 321.885L300.344 322.512C300.297 322.672 300.217 322.844 300.104 323.027C299.99 323.211 299.842 323.387 299.658 323.555C299.479 323.719 299.262 323.854 299.008 323.959C298.758 324.064 298.469 324.117 298.141 324.117C297.727 324.117 297.357 324.035 297.033 323.871C296.709 323.703 296.455 323.479 296.271 323.197C296.088 322.912 295.996 322.59 295.996 322.23C295.996 321.895 296.059 321.598 296.184 321.34C296.312 321.078 296.5 320.859 296.746 320.684C296.996 320.508 297.301 320.375 297.66 320.285C298.02 320.191 298.43 320.145 298.891 320.145H299.998ZM304.088 319.014V324H302.676V317.66H304.006L304.088 319.014ZM303.836 320.596L303.379 320.59C303.383 320.141 303.445 319.729 303.566 319.354C303.691 318.979 303.863 318.656 304.082 318.387C304.305 318.117 304.57 317.91 304.879 317.766C305.188 317.617 305.531 317.543 305.91 317.543C306.215 317.543 306.49 317.586 306.736 317.672C306.986 317.754 307.199 317.889 307.375 318.076C307.555 318.264 307.691 318.508 307.785 318.809C307.879 319.105 307.926 319.471 307.926 319.904V324H306.508V319.898C306.508 319.594 306.463 319.354 306.373 319.178C306.287 318.998 306.16 318.871 305.992 318.797C305.828 318.719 305.623 318.68 305.377 318.68C305.135 318.68 304.918 318.73 304.727 318.832C304.535 318.934 304.373 319.072 304.24 319.248C304.111 319.424 304.012 319.627 303.941 319.857C303.871 320.088 303.836 320.334 303.836 320.596ZM311.957 322.992C312.188 322.992 312.395 322.947 312.578 322.857C312.766 322.764 312.916 322.635 313.029 322.471C313.146 322.307 313.211 322.117 313.223 321.902H314.553C314.545 322.312 314.424 322.686 314.189 323.021C313.955 323.357 313.645 323.625 313.258 323.824C312.871 324.02 312.443 324.117 311.975 324.117C311.49 324.117 311.068 324.035 310.709 323.871C310.35 323.703 310.051 323.473 309.812 323.18C309.574 322.887 309.395 322.549 309.273 322.166C309.156 321.783 309.098 321.373 309.098 320.936V320.73C309.098 320.293 309.156 319.883 309.273 319.5C309.395 319.113 309.574 318.773 309.812 318.48C310.051 318.188 310.35 317.959 310.709 317.795C311.068 317.627 311.488 317.543 311.969 317.543C312.477 317.543 312.922 317.645 313.305 317.848C313.688 318.047 313.988 318.326 314.207 318.686C314.43 319.041 314.545 319.455 314.553 319.928H313.223C313.211 319.693 313.152 319.482 313.047 319.295C312.945 319.104 312.801 318.951 312.613 318.838C312.43 318.725 312.209 318.668 311.951 318.668C311.666 318.668 311.43 318.727 311.242 318.844C311.055 318.957 310.908 319.113 310.803 319.312C310.697 319.508 310.621 319.729 310.574 319.975C310.531 320.217 310.51 320.469 310.51 320.73V320.936C310.51 321.197 310.531 321.451 310.574 321.697C310.617 321.943 310.691 322.164 310.797 322.359C310.906 322.551 311.055 322.705 311.242 322.822C311.43 322.936 311.668 322.992 311.957 322.992ZM318.432 324.117C317.963 324.117 317.539 324.041 317.16 323.889C316.785 323.732 316.465 323.516 316.199 323.238C315.938 322.961 315.736 322.635 315.596 322.26C315.455 321.885 315.385 321.48 315.385 321.047V320.812C315.385 320.316 315.457 319.867 315.602 319.465C315.746 319.062 315.947 318.719 316.205 318.434C316.463 318.145 316.768 317.924 317.119 317.771C317.471 317.619 317.852 317.543 318.262 317.543C318.715 317.543 319.111 317.619 319.451 317.771C319.791 317.924 320.072 318.139 320.295 318.416C320.521 318.689 320.689 319.016 320.799 319.395C320.912 319.773 320.969 320.191 320.969 320.648V321.252H316.07V320.238H319.574V320.127C319.566 319.873 319.516 319.635 319.422 319.412C319.332 319.189 319.193 319.01 319.006 318.873C318.818 318.736 318.568 318.668 318.256 318.668C318.021 318.668 317.812 318.719 317.629 318.82C317.449 318.918 317.299 319.061 317.178 319.248C317.057 319.436 316.963 319.662 316.896 319.928C316.834 320.189 316.803 320.484 316.803 320.812V321.047C316.803 321.324 316.84 321.582 316.914 321.82C316.992 322.055 317.105 322.26 317.254 322.436C317.402 322.611 317.582 322.75 317.793 322.852C318.004 322.949 318.244 322.998 318.514 322.998C318.854 322.998 319.156 322.93 319.422 322.793C319.688 322.656 319.918 322.463 320.113 322.213L320.857 322.934C320.721 323.133 320.543 323.324 320.324 323.508C320.105 323.688 319.838 323.834 319.521 323.947C319.209 324.061 318.846 324.117 318.432 324.117Z" fill="#6C757D"/>
<path d="M351 291.01V284H349V291.01H346L350 295L354 291.01H351ZM352 296.99H355V304H357V296.99H360L356 293L352 296.99Z" fill="#6C757D"/>
<path d="M351 67.01V60H349V67.01H346L350 71L354 67.01H351ZM352 72.99H355V80H357V72.99H360L356 69L352 72.99Z" fill="#6C757D"/>
<path d="M431.01 249H424V251H431.01V254L435 250L431.01 246V249ZM436.99 248V245H444V243H436.99V240L433 244L436.99 248Z" fill="#6C757D"/>
</g>
<defs>
<clipPath id="clip0_175_638">
<rect width="1296" height="1296" fill="white" transform="translate(0 -864)"/>
</clipPath>
</defs>
</svg>
