<svg width="432" height="432" viewBox="0 0 432 432" fill="none" xmlns="http://www.w3.org/2000/svg">
<g clip-path="url(#clip0_175_638)">
<mask id="path-1-outside-1_175_638" maskUnits="userSpaceOnUse" x="-495" y="231" width="716" height="32" fill="black">
<rect fill="white" x="-495" y="231" width="716" height="32"/>
<path d="M-495 232L210 232C215.523 232 220 236.477 220 242V252C220 257.523 215.523 262 210 262L-495 262V232Z"/>
</mask>
<path d="M-495 232L210 232C215.523 232 220 236.477 220 242V252C220 257.523 215.523 262 210 262L-495 262V232Z" fill="white"/>
<path d="M-495 231L210 231C216.075 231 221 235.925 221 242H219C219 237.029 214.971 233 210 233L-495 233V231ZM221 252C221 258.075 216.075 263 210 263L-495 263V261L210 261C214.971 261 219 256.971 219 252H221ZM-495 262V232V262ZM210 231C216.075 231 221 235.925 221 242V252C221 258.075 216.075 263 210 263V261C214.971 261 219 256.971 219 252V242C219 237.029 214.971 233 210 233V231Z" fill="#C8C8C8" mask="url(#path-1-outside-1_175_638)"/>
<path d="M24.01 249H17V251H24.01V254L28 250L24.01 246V249ZM29.99 248V245H37V243H29.99V240L26 244L29.99 248Z" fill="#6C757D"/>
</g>
<defs>
<clipPath id="clip0_175_638">
<rect width="1296" height="1296" fill="white" transform="translate(-864 -864)"/>
</clipPath>
</defs>
</svg>
