<svg width="432" height="432" viewBox="0 0 432 432" fill="none" xmlns="http://www.w3.org/2000/svg">
<g clip-path="url(#clip0_175_638)">
<mask id="path-1-outside-1_175_638" maskUnits="userSpaceOnUse" x="-63" y="231" width="716" height="32" fill="black">
<rect fill="white" x="-63" y="231" width="716" height="32"/>
<path d="M-63 232L642 232C647.523 232 652 236.477 652 242V252C652 257.523 647.523 262 642 262L-63 262V232Z"/>
</mask>
<path d="M-63 232L642 232C647.523 232 652 236.477 652 242V252C652 257.523 647.523 262 642 262L-63 262V232Z" fill="white"/>
<path d="M-63 231L642 231C648.075 231 653 235.925 653 242H651C651 237.029 646.971 233 642 233L-63 233V231ZM653 252C653 258.075 648.075 263 642 263L-63 263V261L642 261C646.971 261 651 256.971 651 252H653ZM-63 262V232V262ZM642 231C648.075 231 653 235.925 653 242V252C653 258.075 648.075 263 642 263V261C646.971 261 651 256.971 651 252V242C651 237.029 646.971 233 642 233V231Z" fill="#C8C8C8" mask="url(#path-1-outside-1_175_638)"/>
<mask id="path-3-inside-2_175_638" fill="white">
<path d="M73 232L73 -671H88L88 232H73Z"/>
</mask>
<path d="M73 232L73 -671H88L88 232H73Z" fill="white"/>
<path d="M74 232L74 -671H72L72 232H74ZM87 -671L87 232H89L89 -671H87Z" fill="#C8C8C8" mask="url(#path-3-inside-2_175_638)"/>
<mask id="path-5-inside-3_175_638" fill="white">
<path d="M40.5 408C36.3579 408 33 404.642 33 400.5L33 262H48L48 400.5C48 404.642 44.6421 408 40.5 408V408Z"/>
</mask>
<path d="M40.5 408C36.3579 408 33 404.642 33 400.5L33 262H48L48 400.5C48 404.642 44.6421 408 40.5 408V408Z" fill="white"/>
<path d="M40.5 409C35.8056 409 32 405.194 32 400.5L32 262H34L34 400.5C34 404.09 36.9101 407 40.5 407V409ZM49 262L49 400.5C49 405.194 45.1944 409 40.5 409V407C44.0899 407 47 404.09 47 400.5L47 262H49ZM49 400.5C49 405.194 45.1944 409 40.5 409C35.8056 409 32 405.194 32 400.5H34C34 404.09 36.9101 407 40.5 407C44.0899 407 47 404.09 47 400.5H49ZM33 262H48H33Z" fill="#C8C8C8" mask="url(#path-5-inside-3_175_638)"/>
<mask id="path-7-inside-4_175_638" fill="white">
<path d="M348 232L348 -671H363L363 232H348Z"/>
</mask>
<path d="M348 232L348 -671H363L363 232H348Z" fill="white"/>
<path d="M349 232L349 -671H347L347 232H349ZM362 -671L362 232H364L364 -671H362Z" fill="#C8C8C8" mask="url(#path-7-inside-4_175_638)"/>
<mask id="path-9-inside-5_175_638" fill="white">
<path d="M87 47V32L349 32V47L87 47Z"/>
</mask>
<path d="M87 47V32L349 32V47L87 47Z" fill="white"/>
<path d="M87 33L349 33V31L87 31V33ZM349 46L87 46V48L349 48V46Z" fill="#C8C8C8" mask="url(#path-9-inside-5_175_638)"/>
<path d="M-0.99 249H-8V251H-0.99V254L3 250L-0.99 246V249ZM4.99 248V245H12V243H4.99V240L1 244L4.99 248Z" fill="#6C757D"/>
<path d="M214.01 249H207V251H214.01V254L218 250L214.01 246V249ZM219.99 248V245H227V243H219.99V240L216 244L219.99 248Z" fill="#6C757D"/>
</g>
<defs>
<clipPath id="clip0_175_638">
<rect width="1296" height="1296" fill="white" transform="translate(-432 -864)"/>
</clipPath>
</defs>
</svg>
