<svg width="432" height="432" viewBox="0 0 432 432" fill="none" xmlns="http://www.w3.org/2000/svg">
<g clip-path="url(#clip0_175_638)">
<mask id="path-1-inside-1_175_638" fill="white">
<path d="M-70 301V286H70.5C74.6421 286 78 289.358 78 293.5V293.5C78 297.642 74.6421 301 70.5 301H-70Z"/>
</mask>
<path d="M-70 301V286H70.5C74.6421 286 78 289.358 78 293.5V293.5C78 297.642 74.6421 301 70.5 301H-70Z" fill="white"/>
<path d="M-70 301V286V301ZM70.5 285C75.1944 285 79 288.806 79 293.5C79 298.194 75.1944 302 70.5 302V300C74.0899 300 77 297.09 77 293.5C77 289.91 74.0899 287 70.5 287V285ZM79 293.5C79 298.194 75.1944 302 70.5 302H-70V300H70.5C74.0899 300 77 297.09 77 293.5H79ZM-70 285H70.5C75.1944 285 79 288.806 79 293.5H77C77 289.91 74.0899 287 70.5 287H-70V285Z" fill="#C8C8C8" mask="url(#path-1-inside-1_175_638)"/>
<mask id="path-3-inside-2_175_638" fill="white">
<path d="M-70 94V79L70.5 79C74.6421 79 78 82.3579 78 86.5V86.5C78 90.6421 74.6421 94 70.5 94L-70 94Z"/>
</mask>
<path d="M-70 94V79L70.5 79C74.6421 79 78 82.3579 78 86.5V86.5C78 90.6421 74.6421 94 70.5 94L-70 94Z" fill="white"/>
<path d="M-70 94V79V94ZM70.5 78C75.1944 78 79 81.8056 79 86.5C79 91.1944 75.1944 95 70.5 95V93C74.0899 93 77 90.0899 77 86.5C77 82.9101 74.0899 80 70.5 80V78ZM79 86.5C79 91.1944 75.1944 95 70.5 95L-70 95V93L70.5 93C74.0899 93 77 90.0899 77 86.5H79ZM-70 78L70.5 78C75.1944 78 79 81.8056 79 86.5H77C77 82.9101 74.0899 80 70.5 80L-70 80V78Z" fill="#C8C8C8" mask="url(#path-3-inside-2_175_638)"/>
</g>
<defs>
<clipPath id="clip0_175_638">
<rect width="1296" height="1296" fill="white" transform="translate(-864 -432)"/>
</clipPath>
</defs>
</svg>
