<svg width="432" height="432" viewBox="0 0 432 432" fill="none" xmlns="http://www.w3.org/2000/svg">
<g clip-path="url(#clip0_175_638)">
<path d="M348 164.5L998 164.5C1003.25 164.5 1007.5 168.753 1007.5 174V184C1007.5 189.247 1003.25 193.5 998 193.5L338.5 193.5V174C338.5 168.753 342.753 164.5 348 164.5Z" fill="white" stroke="#C8C8C8"/>
<mask id="path-2-outside-1_175_638" maskUnits="userSpaceOnUse" x="338" y="193" width="32" height="1007" fill="black">
<rect fill="white" x="338" y="193" width="32" height="1007"/>
<path d="M339 1199L339 193H369L369 1189C369 1194.52 364.523 1199 359 1199H339Z"/>
</mask>
<path d="M339 1199L339 193H369L369 1189C369 1194.52 364.523 1199 359 1199H339Z" fill="white"/>
<path d="M338 1200L338 193H340L340 1198L338 1200ZM370 193L370 1189C370 1195.08 365.075 1200 359 1200V1198C363.971 1198 368 1193.97 368 1189L368 193H370ZM370 1189C370 1195.08 365.075 1200 359 1200H338L340 1198H359C363.971 1198 368 1193.97 368 1189H370ZM339 193H369H339Z" fill="#C8C8C8" mask="url(#path-2-outside-1_175_638)"/>
<path d="M351 333.01V326H349V333.01H346L350 337L354 333.01H351ZM352 338.99H355V346H357V338.99H360L356 335L352 338.99Z" fill="#6C757D"/>
<path d="M433.01 181H426V183H433.01V186L437 182L433.01 178V181ZM438.99 180V177H446V175H438.99V172L435 176L438.99 180Z" fill="#6C757D"/>
</g>
<defs>
<clipPath id="clip0_175_638">
<rect width="1296" height="1296" fill="white"/>
</clipPath>
</defs>
</svg>
